<svg width="184" height="147" viewBox="0 0 184 147" fill="none" xmlns="http://www.w3.org/2000/svg">
<g filter="url(#filter0_g_3_341)">
<rect x="64.3553" y="38.0187" width="9.08672" height="3.61208" rx="1" transform="rotate(47.7374 64.3553 38.0187)" fill="#333333"/>
</g>
<g filter="url(#filter1_g_3_341)">
<path d="M66.2789 37.8499C65.9006 37.4302 65.941 36.7836 66.372 36.4181C68.3054 34.7784 73.431 30.4148 77.4249 26.8646C81.2939 23.4256 86.264 25.8167 88.3444 27.0976C88.8739 27.4237 88.9052 28.1452 88.4433 28.5616L72.3404 43.0797C71.9302 43.4495 71.2979 43.4168 70.9281 43.0066L66.2789 37.8499Z" fill="#333333"/>
</g>
<g filter="url(#filter2_g_3_341)">
<path d="M78.8529 40.5242C80.3654 39.0909 82.7383 39.1028 84.2363 40.5512L107.658 63.1962C109.932 65.3949 109.883 69.0552 107.552 71.1928C105.256 73.2976 101.671 73.0739 99.6546 70.7L78.5636 45.8699C77.225 44.294 77.352 41.9465 78.8529 40.5242Z" fill="#333333"/>
</g>
<g filter="url(#filter3_g_3_341)">
<rect x="81.3252" y="41.7072" width="34.9353" height="1.91868" rx="0.959338" transform="rotate(47.0468 81.3252 41.7072)" fill="white"/>
</g>
<g filter="url(#filter4_g_3_341)">
<rect x="76.7696" y="57.3084" width="29.3775" height="9.79346" transform="rotate(-47.8995 76.7696 57.3084)" fill="#333333"/>
</g>
<g filter="url(#filter5_g_3_341)">
<path d="M113.706 33.6853C114.343 38.9099 109.088 40.5097 105.571 42.6083C102.054 44.7069 95.7687 41.2991 95.6684 40.4765C95.5681 39.6539 94.5213 28.0399 103.051 25.3838C111.581 22.7277 113.069 28.4606 113.706 33.6853Z" fill="#333333"/>
</g>
<rect x="100.918" y="32.5976" width="18.7766" height="7.84048" rx="3.92024" transform="rotate(-29.3959 100.918 32.5976)" fill="white"/>
<rect x="77.4856" y="28.3755" width="12.1816" height="6.66271" rx="3.33135" transform="rotate(-11.6419 77.4856 28.3755)" fill="white"/>
<g filter="url(#filter6_g_3_341)">
<path d="M67.7094 64.3644C67.8065 59.3163 69.7729 60.4285 76.5977 56.9818C83.4224 53.5351 87.343 56.3934 85.6769 60.3369C84.0108 64.2804 81.7221 73.7777 76.674 73.6806C71.6259 73.5835 67.6123 69.4125 67.7094 64.3644Z" fill="#333333"/>
</g>
<rect x="79.8087" y="67.1462" width="17.9121" height="6.73293" rx="3.36646" transform="rotate(154.379 79.8087 67.1462)" fill="white"/>
<g filter="url(#filter7_g_3_341)">
<rect x="83.3815" y="55.7422" width="19.9785" height="2.2345" rx="1.11725" transform="rotate(-47.8995 83.3815 55.7422)" fill="white"/>
</g>
<g filter="url(#filter8_g_3_341)">
<circle cx="89.2522" cy="72.2217" r="62.2565" stroke="#333333" stroke-width="2"/>
</g>
<g filter="url(#filter9_g_3_341)">
<circle cx="89.2523" cy="72.2217" r="69.9217" stroke="#333333" stroke-width="4"/>
</g>
<rect y="97.351" width="183.704" height="48.5255" fill="white"/>
<g filter="url(#filter10_g_3_341)">
<path d="M50.4945 50.9938L50.9398 51.0495V52.0925H48.1537L48.0951 51.5944C48.1478 51.5261 48.2582 51.4597 48.4262 51.3952V48.653C48.2601 48.5944 48.1498 48.527 48.0951 48.4509L48.1537 47.9528H50.89V48.9958L50.4476 49.0515C50.3539 48.9714 50.2797 48.8229 50.225 48.6061H49.2904V49.6374H50.1224C50.1713 49.5202 50.2211 49.4362 50.2719 49.3854L50.6498 49.4294V50.4958L50.2719 50.5456C50.223 50.5046 50.1732 50.4206 50.1224 50.2936H49.2904V51.4391H50.2719C50.3246 51.2282 50.3988 51.0798 50.4945 50.9938ZM52.4926 49.5847C52.2289 49.5847 52.097 49.6628 52.097 49.819C52.097 49.9675 52.2357 50.0768 52.5131 50.1472L52.9847 50.2731C53.473 50.402 53.7172 50.6843 53.7172 51.1198C53.7172 51.4186 53.6127 51.6638 53.4037 51.8552C53.2982 51.9489 53.1566 52.0192 52.9789 52.0661C52.8012 52.111 52.6097 52.1354 52.4047 52.1393C52.2015 52.1432 52.0043 52.1286 51.8129 52.0954C51.6215 52.0622 51.4603 52.0134 51.3295 51.9489C51.3275 51.9274 51.3256 51.9059 51.3236 51.8845C51.3236 51.861 51.3236 51.8386 51.3236 51.8171C51.3236 51.5964 51.3676 51.3981 51.4554 51.2224H51.9535C52.0082 51.322 52.0424 51.4216 52.056 51.5212C52.1322 51.5466 52.2465 51.5593 52.3988 51.5593C52.7504 51.5593 52.9262 51.4587 52.9262 51.2575C52.9262 51.195 52.9027 51.1423 52.8558 51.0993C52.8051 51.0583 52.7103 51.0173 52.5717 50.9763L52.097 50.8386C51.8529 50.7702 51.6625 50.6696 51.5258 50.5368C51.391 50.402 51.3236 50.2038 51.3236 49.9421C51.3236 49.6784 51.4301 49.4636 51.6429 49.2975C51.7484 49.2136 51.8803 49.1511 52.0385 49.11C52.1986 49.069 52.3695 49.0475 52.5512 49.0456C52.7328 49.0417 52.9105 49.0554 53.0844 49.0866C53.2582 49.1159 53.4135 49.1599 53.5502 49.2184C53.5521 49.238 53.5531 49.2575 53.5531 49.277C53.5551 49.2966 53.556 49.3171 53.556 49.3386C53.556 49.5436 53.5121 49.736 53.4242 49.9157H52.932C52.8773 49.82 52.8431 49.7233 52.8295 49.6257C52.7142 49.5983 52.6019 49.5847 52.4926 49.5847ZM54.6547 48.3366H55.0912V49.0925H55.9496V49.5964H55.0912V51.114C55.0912 51.2448 55.1097 51.3376 55.1469 51.3923C55.1742 51.4352 55.225 51.4626 55.2992 51.4743C55.3754 51.4841 55.4623 51.4811 55.5599 51.4655C55.6576 51.4499 55.7513 51.4245 55.8412 51.3893L56.0228 51.8581C55.7142 52.0143 55.3988 52.0925 55.0765 52.0925C54.7543 52.0925 54.5365 52.0241 54.4232 51.8874C54.3099 51.7487 54.2533 51.5475 54.2533 51.2839V49.5964H53.9838L53.9164 49.2302C53.9808 49.154 54.1127 49.0778 54.3119 49.0016C54.3627 48.6716 54.4769 48.4499 54.6547 48.3366Z" fill="#333333"/>
</g>
<g filter="url(#filter11_g_3_341)">
<path d="M120.613 47.903C121.478 47.903 121.911 48.2536 121.911 48.9548C121.911 49.1071 121.873 49.2682 121.797 49.4382C121.721 49.6081 121.63 49.7546 121.524 49.8776L120.654 50.9235C120.523 51.072 120.368 51.2214 120.188 51.3718L120.092 51.4567L120.121 51.5212C120.307 51.486 120.503 51.4684 120.71 51.4684H121.184C121.212 51.2477 121.262 51.0759 121.334 50.9528L121.902 50.988C121.992 51.1384 122.037 51.3806 122.037 51.7145C122.037 51.8552 122.022 51.9811 121.993 52.0925H119.239L119.096 51.3483L120.59 49.7282C120.869 49.4216 121.009 49.1296 121.009 48.8522C121.009 48.7057 120.974 48.5993 120.903 48.5329C120.852 48.486 120.775 48.4557 120.672 48.4421C120.568 48.4284 120.459 48.4284 120.344 48.4421C120.228 48.4538 120.129 48.4763 120.045 48.5095C120.006 48.8083 119.959 49.0026 119.904 49.0925L119.371 49.0632C119.297 48.9323 119.255 48.7097 119.245 48.3952C119.245 48.362 119.245 48.3337 119.245 48.3102C119.247 48.2849 119.249 48.2653 119.251 48.2516C119.612 48.0192 120.066 47.903 120.613 47.903ZM125.895 49.9186C125.895 50.3347 125.85 50.6843 125.758 50.9675C125.666 51.2507 125.537 51.4782 125.371 51.6501C125.207 51.822 125.014 51.946 124.791 52.0222C124.57 52.0983 124.33 52.1364 124.07 52.1364C123.713 52.1364 123.409 52.0661 123.159 51.9255C122.911 51.7829 122.722 51.5554 122.591 51.2429C122.462 50.9304 122.397 50.5173 122.397 50.0036C122.397 49.2927 122.558 48.7643 122.878 48.4186C123.2 48.071 123.638 47.8972 124.19 47.8972C124.757 47.8972 125.183 48.0554 125.468 48.3718C125.753 48.6862 125.895 49.2018 125.895 49.9186ZM124.999 50.0212C124.999 49.0622 124.711 48.5827 124.135 48.5827C123.865 48.5827 123.659 48.6862 123.517 48.8932C123.458 48.9792 123.411 49.0954 123.376 49.2419C123.341 49.3864 123.317 49.5466 123.306 49.7224C123.294 49.8981 123.295 50.0749 123.309 50.2526C123.322 50.4284 123.347 50.5915 123.382 50.7419C123.419 50.8923 123.468 51.0143 123.528 51.1081C123.681 51.3444 123.89 51.4626 124.155 51.4626C124.421 51.4626 124.628 51.3522 124.776 51.1315C124.925 50.9089 124.999 50.5388 124.999 50.0212ZM127.726 47.903C128.592 47.903 129.024 48.2536 129.024 48.9548C129.024 49.1071 128.986 49.2682 128.91 49.4382C128.834 49.6081 128.743 49.7546 128.638 49.8776L127.767 50.9235C127.637 51.072 127.481 51.2214 127.302 51.3718L127.205 51.4567L127.234 51.5212C127.42 51.486 127.616 51.4684 127.823 51.4684H128.298C128.325 51.2477 128.375 51.0759 128.447 50.9528L129.016 50.988C129.105 51.1384 129.15 51.3806 129.15 51.7145C129.15 51.8552 129.136 51.9811 129.106 52.0925H126.352L126.209 51.3483L127.703 49.7282C127.982 49.4216 128.122 49.1296 128.122 48.8522C128.122 48.7057 128.087 48.5993 128.017 48.5329C127.966 48.486 127.889 48.4557 127.785 48.4421C127.682 48.4284 127.572 48.4284 127.457 48.4421C127.342 48.4538 127.242 48.4763 127.158 48.5095C127.119 48.8083 127.072 49.0026 127.017 49.0925L126.484 49.0632C126.41 48.9323 126.368 48.7097 126.358 48.3952C126.358 48.362 126.358 48.3337 126.358 48.3102C126.36 48.2849 126.362 48.2653 126.364 48.2516C126.725 48.0192 127.18 47.903 127.726 47.903ZM130.911 49.4411C131.304 49.4411 131.61 49.5466 131.831 49.7575C132.054 49.9665 132.165 50.279 132.165 50.695C132.165 51.1872 132.019 51.5515 131.728 51.7878C131.439 52.0222 131.035 52.1393 130.516 52.1393C130.404 52.1393 130.283 52.1276 130.152 52.1042C130.023 52.0827 129.9 52.0544 129.783 52.0192C129.668 51.9821 129.574 51.9421 129.502 51.8991L129.695 51.3776C129.922 51.4655 130.168 51.5095 130.434 51.5095C130.697 51.5095 130.894 51.4557 131.025 51.3483C131.158 51.2409 131.225 51.0671 131.225 50.8268C131.225 50.5007 131.148 50.2868 130.996 50.1852C130.877 50.1013 130.733 50.0593 130.565 50.0593C130.401 50.0593 130.183 50.0788 129.909 50.1179L129.669 49.6755H129.663V47.9528H131.878V48.6354H130.413V49.4763C130.542 49.4528 130.708 49.4411 130.911 49.4411Z" fill="#333333"/>
</g>
<g filter="url(#filter12_g_3_341)">
<path d="M54.1929 86.9831C54.1929 87.6618 53.9805 88.2307 53.5557 88.6896C53.1309 89.1486 52.5987 89.4977 51.9591 89.737C52.4571 89.947 52.7867 90.2033 52.9478 90.506L54.0391 92.5934C54.5177 92.7448 54.8399 92.9279 55.0059 93.1428L54.8521 94.3H52.3179L50.5894 90.6232C50.4381 90.2521 50.255 90.0666 50.0401 90.0666H49.066V92.4689C49.7887 92.6301 50.2428 92.8254 50.4283 93.0549L50.2745 94.3H46.2242L46.0777 93.0549C46.2095 92.884 46.4854 92.718 46.9053 92.5568V85.7014C46.4903 85.5549 46.2144 85.3864 46.0777 85.196L46.2242 83.9509H50.0548C50.9874 83.9606 51.7589 84.0607 52.3692 84.2512C52.9796 84.4367 53.4361 84.7492 53.7388 85.1887C54.0416 85.6232 54.1929 86.2214 54.1929 86.9831ZM49.9449 85.5842H49.066V88.4333H49.9156C50.5992 88.4333 51.107 88.3307 51.439 88.1257C51.776 87.9206 51.9444 87.5519 51.9444 87.0197C51.9444 86.4924 51.7735 86.1213 51.4317 85.9064C51.0948 85.6916 50.5992 85.5842 49.9449 85.5842ZM55.4967 85.196L55.6431 83.9509H59.1588L59.3053 85.196C59.1441 85.3864 58.8707 85.5549 58.4849 85.7014V92.5568C58.8707 92.7131 59.1441 92.8791 59.3053 93.0549L59.1588 94.3H55.6431L55.4967 93.0549C55.6285 92.884 55.9044 92.718 56.3243 92.5568V85.7014C55.9093 85.5549 55.6334 85.3864 55.4967 85.196ZM64.6373 85.5256C63.9586 85.5256 63.4312 85.7868 63.0553 86.3093C62.6793 86.8268 62.4913 87.7302 62.4913 89.0192C62.4913 91.4899 63.1724 92.7253 64.5347 92.7253C65.067 92.7253 65.5455 92.6398 65.9703 92.4689V90.777C65.5064 90.6208 65.1915 90.4352 65.0255 90.2204L65.1793 89.0339H68.6876L68.8414 90.2204C68.7095 90.3815 68.4727 90.5353 68.1309 90.6818V93.4577C67.6524 93.8093 67.1251 94.0583 66.5489 94.2048C65.9727 94.3464 65.255 94.4172 64.3956 94.4172C62.9649 94.4172 61.9151 94.0119 61.2462 93.2014C60.5772 92.3859 60.2428 91.0602 60.2428 89.2243C60.2428 87.3884 60.6407 86.0309 61.4366 85.152C62.2374 84.2682 63.3287 83.8264 64.7105 83.8264C66.0972 83.8264 67.2276 84.1437 68.1016 84.7785V85.1154C68.1016 85.2277 68.0845 85.4011 68.0504 85.6354C68.0211 85.8649 67.9771 86.1066 67.9185 86.3605C67.8599 86.6096 67.7867 86.822 67.6988 86.9977H66.3145C66.1632 86.7048 66.0631 86.2897 66.0142 85.7526C65.5894 85.6013 65.1304 85.5256 64.6373 85.5256ZM75.858 92.5568V89.5612H72.5621V92.5568C72.9478 92.7131 73.2213 92.8791 73.3824 93.0549L73.2359 94.3H69.7203L69.5738 93.0549C69.7056 92.884 69.9815 92.718 70.4014 92.5568V85.7014C69.9864 85.5549 69.7105 85.3864 69.5738 85.196L69.7203 83.9509H73.2359L73.3824 85.196C73.2213 85.3864 72.9478 85.5549 72.5621 85.7014V88.0598H75.858V85.7014C75.4429 85.5549 75.1671 85.3864 75.0303 85.196L75.1842 83.9509H78.6925L78.8463 85.196C78.6851 85.3864 78.4093 85.5549 78.0186 85.7014V92.5568C78.4093 92.7131 78.6851 92.8791 78.8463 93.0549L78.6925 94.3H75.1842L75.0303 93.0549C75.1622 92.884 75.4381 92.718 75.858 92.5568ZM80.3844 86.2287L79.4395 86.1115V83.9655H87.8404V86.1115L86.8956 86.2287C86.7637 86.1359 86.6392 85.926 86.522 85.5988H84.7203V92.5568C85.1109 92.7131 85.3868 92.8791 85.5479 93.0549L85.3941 94.3H81.8858L81.732 93.0549C81.8638 92.884 82.1397 92.718 82.5596 92.5568V85.5988H80.7579C80.6407 85.926 80.5162 86.1359 80.3844 86.2287ZM92.7769 92.4836L95.6553 83.8776H97.7135L100.702 92.5275C101.122 92.6789 101.415 92.8547 101.581 93.0549L101.434 94.3H97.9259L97.772 93.0549C97.8941 92.8986 98.1358 92.7497 98.4971 92.6081L98.087 91.3483H95.0914L94.7105 92.5568C95.0621 92.6984 95.3233 92.8644 95.4942 93.0549L95.3404 94.3H91.92L91.7735 93.0549C91.9591 92.8254 92.2935 92.6349 92.7769 92.4836ZM96.6954 86.2287L96.6807 85.9724H96.4683C96.4683 86.5778 96.3438 87.2883 96.0948 88.1037L95.5089 89.9641H97.6549L97.0836 88.133C96.8541 87.4299 96.7247 86.7951 96.6954 86.2287ZM107.316 88.6896L106.056 94.3732H103.741L101.346 85.7014C100.931 85.5549 100.655 85.3864 100.519 85.196L100.665 83.9509H104.137L104.283 85.196C104.107 85.4011 103.837 85.5646 103.47 85.6867L104.54 90.1179C104.701 90.7526 104.825 91.3874 104.913 92.0222L104.942 92.2785H105.155C105.165 91.6828 105.26 90.9724 105.441 90.1472L106.788 84.0534H109.081L110.436 90.1179C110.587 90.8405 110.697 91.4753 110.765 92.0222L110.795 92.2932H111.007C111.031 91.673 111.151 90.9577 111.366 90.1472L112.545 85.7526C112.12 85.5964 111.832 85.4108 111.681 85.196L111.827 83.9509H115.145L115.292 85.196C115.106 85.4304 114.772 85.6257 114.288 85.7819L111.769 94.3732H109.41L108.202 88.7043C108.133 88.3625 108.072 88.028 108.019 87.7009C107.965 87.3688 107.921 87.0392 107.887 86.7121L107.85 86.4118H107.645C107.606 87.1052 107.496 87.8644 107.316 88.6896ZM115.16 92.4836L118.038 83.8776H120.096L123.085 92.5275C123.504 92.6789 123.797 92.8547 123.963 93.0549L123.817 94.3H120.309L120.155 93.0549C120.277 92.8986 120.519 92.7497 120.88 92.6081L120.47 91.3483H117.474L117.093 92.5568C117.445 92.6984 117.706 92.8644 117.877 93.0549L117.723 94.3H114.303L114.156 93.0549C114.342 92.8254 114.676 92.6349 115.16 92.4836ZM119.078 86.2287L119.064 85.9724H118.851C118.851 86.5778 118.727 87.2883 118.478 88.1037L117.892 89.9641H120.038L119.466 88.133C119.237 87.4299 119.107 86.7951 119.078 86.2287ZM129.186 93.0549L129.039 94.3H125.531L125.377 93.0549C125.509 92.884 125.785 92.718 126.205 92.5568V90.8356L123.758 85.7526C123.285 85.5915 122.965 85.4059 122.799 85.196L122.931 84.0241V84.0095L122.945 83.9509H126.461L126.607 85.196C126.485 85.3718 126.256 85.5207 125.919 85.6428L126.432 86.8C126.72 87.4689 126.969 88.1232 127.179 88.7629L127.281 89.0632H127.508C127.616 88.7018 127.738 88.3332 127.875 87.9572C128.011 87.5764 128.165 87.1906 128.336 86.8L128.812 85.7014C128.417 85.55 128.148 85.3815 128.006 85.196L128.153 83.9509H131.573L131.727 85.196C131.532 85.4206 131.2 85.611 130.731 85.7673L128.365 90.8356V92.5568C128.761 92.7131 129.034 92.8791 129.186 93.0549Z" fill="#333333"/>
<path d="M41.8604 112.739C41.8604 114.368 41.3507 115.734 40.3311 116.835C39.3116 117.937 38.0343 118.775 36.4991 119.349C37.6944 119.853 38.4854 120.468 38.8721 121.195L41.4913 126.204C42.6397 126.568 43.4132 127.007 43.8116 127.523L43.4425 130.3H37.3604L33.212 121.476C32.8487 120.585 32.4093 120.14 31.8936 120.14H29.5557V125.905C31.2901 126.292 32.38 126.761 32.8253 127.312L32.4561 130.3H22.7354L22.3839 127.312C22.7003 126.902 23.3624 126.503 24.3702 126.116V109.663C23.3741 109.312 22.712 108.907 22.3839 108.45L22.7354 105.462H31.9288C34.1671 105.486 36.0186 105.726 37.4835 106.183C38.9483 106.628 40.044 107.378 40.7706 108.433C41.4971 109.476 41.8604 110.911 41.8604 112.739ZM31.6651 109.382H29.5557V116.22H31.5948C33.2354 116.22 34.4542 115.974 35.2511 115.482C36.0596 114.989 36.4639 114.105 36.4639 112.827C36.4639 111.562 36.0538 110.671 35.2335 110.155C34.4249 109.64 33.2354 109.382 31.6651 109.382ZM59.3858 123.708L62.0577 124.042V130.3H45.3409L44.9893 127.312C45.3057 126.902 45.9678 126.503 46.9757 126.116V109.663C45.9796 109.312 45.3175 108.907 44.9893 108.45L45.3409 105.462H61.7589V111.72L59.1046 112.054C58.5421 111.573 58.0968 110.683 57.7686 109.382H52.1612V115.57H57.1534C57.4464 114.866 57.7452 114.362 58.0499 114.058L60.3175 114.321V120.72L58.0499 121.019C57.7569 120.773 57.4581 120.269 57.1534 119.507H52.1612V126.38H58.0499C58.3663 125.114 58.8116 124.224 59.3858 123.708ZM73.1846 121.652H71.5675V125.905C73.3018 126.292 74.3917 126.761 74.837 127.312L74.4678 130.3H64.7471L64.3956 127.312C64.712 126.902 65.3741 126.503 66.3819 126.116V109.663C65.3858 109.312 64.7237 108.907 64.3956 108.45L64.7471 105.462H74.2921C76.5186 105.486 78.3643 105.755 79.8292 106.271C81.3057 106.775 82.4073 107.607 83.1339 108.767C83.8604 109.927 84.2237 111.503 84.2237 113.495C84.2237 118.933 80.544 121.652 73.1846 121.652ZM73.712 109.382H71.5675V117.732H73.9757C75.6046 117.732 76.8175 117.409 77.6143 116.765C78.4229 116.109 78.8272 114.984 78.8272 113.39C78.8272 111.784 78.3878 110.718 77.5089 110.191C76.6417 109.652 75.3761 109.382 73.712 109.382ZM85.4893 125.941L92.3975 105.286H97.337L104.509 126.046C105.517 126.409 106.22 126.831 106.618 127.312L106.267 130.3H97.8468L97.4776 127.312C97.7706 126.937 98.3507 126.579 99.2178 126.239L98.2335 123.216H91.044L90.13 126.116C90.9737 126.456 91.6007 126.855 92.0108 127.312L91.6417 130.3H83.4327L83.0811 127.312C83.5264 126.761 84.3292 126.304 85.4893 125.941ZM94.8936 110.929L94.8585 110.314H94.3487C94.3487 111.767 94.0499 113.472 93.4522 115.429L92.046 119.894H97.1964L95.8253 115.499C95.2745 113.812 94.9639 112.288 94.8936 110.929ZM107.638 108.45L107.989 105.462H116.427L116.778 108.45C116.392 108.907 115.735 109.312 114.81 109.663V126.116C115.735 126.491 116.392 126.89 116.778 127.312L116.427 130.3H107.989L107.638 127.312C107.954 126.902 108.616 126.503 109.624 126.116V109.663C108.628 109.312 107.966 108.907 107.638 108.45ZM138.575 112.739C138.575 114.368 138.066 115.734 137.046 116.835C136.026 117.937 134.749 118.775 133.214 119.349C134.409 119.853 135.2 120.468 135.587 121.195L138.206 126.204C139.355 126.568 140.128 127.007 140.526 127.523L140.157 130.3H134.075L129.927 121.476C129.564 120.585 129.124 120.14 128.608 120.14H126.271V125.905C128.005 126.292 129.095 126.761 129.54 127.312L129.171 130.3H119.45L119.099 127.312C119.415 126.902 120.077 126.503 121.085 126.116V109.663C120.089 109.312 119.427 108.907 119.099 108.45L119.45 105.462H128.644C130.882 105.486 132.733 105.726 134.198 106.183C135.663 106.628 136.759 107.378 137.485 108.433C138.212 109.476 138.575 110.911 138.575 112.739ZM128.38 109.382H126.271V116.22H128.31C129.95 116.22 131.169 115.974 131.966 115.482C132.774 114.989 133.179 114.105 133.179 112.827C133.179 111.562 132.769 110.671 131.948 110.155C131.14 109.64 129.95 109.382 128.38 109.382ZM152.761 109.382C151.941 109.171 151.091 109.066 150.212 109.066C149.321 109.066 148.607 109.282 148.067 109.716C147.517 110.161 147.241 110.788 147.241 111.597C147.241 112.405 147.446 113.038 147.857 113.495C148.267 113.941 149.069 114.333 150.265 114.673L153.482 115.605C155.204 116.109 156.575 116.9 157.595 117.978C158.614 119.044 159.124 120.609 159.124 122.671C159.124 124.3 158.72 125.706 157.911 126.89C157.103 128.073 156.001 128.987 154.607 129.632C153.224 130.265 151.659 130.581 149.913 130.581C148.472 130.581 146.989 130.4 145.466 130.036C143.942 129.661 142.677 129.14 141.669 128.472V127.628C141.669 127.359 141.704 126.948 141.774 126.398C141.857 125.847 141.968 125.273 142.108 124.675C142.261 124.066 142.437 123.55 142.636 123.128H146.064C146.45 123.89 146.679 124.886 146.749 126.116C147.558 126.48 148.536 126.661 149.685 126.661C150.798 126.661 151.712 126.398 152.427 125.87C153.153 125.343 153.517 124.587 153.517 123.603C153.517 123.134 153.482 122.753 153.411 122.46C153.341 122.155 153.118 121.833 152.743 121.493C152.368 121.154 151.835 120.872 151.144 120.65L147.435 119.577C143.661 118.511 141.774 116.109 141.774 112.37C141.774 110.917 142.132 109.652 142.847 108.573C143.573 107.495 144.581 106.657 145.87 106.06C147.159 105.462 148.659 105.163 150.37 105.163C152.937 105.163 155.439 105.743 157.876 106.904V107.73C157.876 107.999 157.835 108.415 157.753 108.978C157.683 109.529 157.571 110.103 157.419 110.7C157.278 111.298 157.103 111.808 156.892 112.23H153.482C153.071 111.644 152.831 110.695 152.761 109.382Z" fill="#FF964B"/>
</g>
<defs>
<filter id="filter0_g_3_341" x="61.8947" y="38.2313" width="8.35911" height="8.72886" filterUnits="userSpaceOnUse" color-interpolation-filters="sRGB">
<feFlood flood-opacity="0" result="BackgroundImageFix"/>
<feBlend mode="normal" in="SourceGraphic" in2="BackgroundImageFix" result="shape"/>
<feTurbulence type="fractalNoise" baseFrequency="2 2" numOctaves="3" seed="339" />
<feDisplacementMap in="shape" scale="0.40000000596046448" xChannelSelector="R" yChannelSelector="G" result="displacedImage" width="100%" height="100%" />
<feMerge result="effect1_texture_3_341">
<feMergeNode in="displacedImage"/>
</feMerge>
</filter>
<filter id="filter1_g_3_341" x="65.8199" y="24.8889" width="23.1474" height="18.648" filterUnits="userSpaceOnUse" color-interpolation-filters="sRGB">
<feFlood flood-opacity="0" result="BackgroundImageFix"/>
<feBlend mode="normal" in="SourceGraphic" in2="BackgroundImageFix" result="shape"/>
<feTurbulence type="fractalNoise" baseFrequency="2 2" numOctaves="3" seed="339" />
<feDisplacementMap in="shape" scale="0.40000000596046448" xChannelSelector="R" yChannelSelector="G" result="displacedImage" width="100%" height="100%" />
<feMerge result="effect1_texture_3_341">
<feMergeNode in="displacedImage"/>
</feMerge>
</filter>
<filter id="filter2_g_3_341" x="77.4378" y="39.257" width="32.0947" height="33.5797" filterUnits="userSpaceOnUse" color-interpolation-filters="sRGB">
<feFlood flood-opacity="0" result="BackgroundImageFix"/>
<feBlend mode="normal" in="SourceGraphic" in2="BackgroundImageFix" result="shape"/>
<feTurbulence type="fractalNoise" baseFrequency="2 2" numOctaves="3" seed="339" />
<feDisplacementMap in="shape" scale="0.40000000596046448" xChannelSelector="R" yChannelSelector="G" result="displacedImage" width="100%" height="100%" />
<feMerge result="effect1_texture_3_341">
<feMergeNode in="displacedImage"/>
</feMerge>
</filter>
<filter id="filter3_g_3_341" x="80.2074" y="41.9937" width="24.6363" height="26.3039" filterUnits="userSpaceOnUse" color-interpolation-filters="sRGB">
<feFlood flood-opacity="0" result="BackgroundImageFix"/>
<feBlend mode="normal" in="SourceGraphic" in2="BackgroundImageFix" result="shape"/>
<feTurbulence type="fractalNoise" baseFrequency="2.6315789222717285 2.6315789222717285" numOctaves="3" seed="1593" />
<feDisplacementMap in="shape" scale="0.2199999988079071" xChannelSelector="R" yChannelSelector="G" result="displacedImage" width="100%" height="100%" />
<feMerge result="effect1_texture_3_341">
<feMergeNode in="displacedImage"/>
</feMerge>
</filter>
<filter id="filter4_g_3_341" x="76.5696" y="35.3112" width="27.3621" height="28.7632" filterUnits="userSpaceOnUse" color-interpolation-filters="sRGB">
<feFlood flood-opacity="0" result="BackgroundImageFix"/>
<feBlend mode="normal" in="SourceGraphic" in2="BackgroundImageFix" result="shape"/>
<feTurbulence type="fractalNoise" baseFrequency="1 1" numOctaves="3" seed="3145" />
<feDisplacementMap in="shape" scale="0.40000000596046448" xChannelSelector="R" yChannelSelector="G" result="displacedImage" width="100%" height="100%" />
<feMerge result="effect1_texture_3_341">
<feMergeNode in="displacedImage"/>
</feMerge>
</filter>
<filter id="filter5_g_3_341" x="95.3768" y="24.5125" width="18.5819" height="18.9685" filterUnits="userSpaceOnUse" color-interpolation-filters="sRGB">
<feFlood flood-opacity="0" result="BackgroundImageFix"/>
<feBlend mode="normal" in="SourceGraphic" in2="BackgroundImageFix" result="shape"/>
<feTurbulence type="fractalNoise" baseFrequency="1 1" numOctaves="3" seed="3145" />
<feDisplacementMap in="shape" scale="0.40000000596046448" xChannelSelector="R" yChannelSelector="G" result="displacedImage" width="100%" height="100%" />
<feMerge result="effect1_texture_3_341">
<feMergeNode in="displacedImage"/>
</feMerge>
</filter>
<filter id="filter6_g_3_341" x="67.5077" y="55.2383" width="18.7513" height="18.643" filterUnits="userSpaceOnUse" color-interpolation-filters="sRGB">
<feFlood flood-opacity="0" result="BackgroundImageFix"/>
<feBlend mode="normal" in="SourceGraphic" in2="BackgroundImageFix" result="shape"/>
<feTurbulence type="fractalNoise" baseFrequency="2 2" numOctaves="3" seed="339" />
<feDisplacementMap in="shape" scale="0.40000000596046448" xChannelSelector="R" yChannelSelector="G" result="displacedImage" width="100%" height="100%" />
<feMerge result="effect1_texture_3_341">
<feMergeNode in="displacedImage"/>
</feMerge>
</filter>
<filter id="filter7_g_3_341" x="83.7323" y="41.2696" width="14.3507" height="15.62" filterUnits="userSpaceOnUse" color-interpolation-filters="sRGB">
<feFlood flood-opacity="0" result="BackgroundImageFix"/>
<feBlend mode="normal" in="SourceGraphic" in2="BackgroundImageFix" result="shape"/>
<feTurbulence type="fractalNoise" baseFrequency="2.6315789222717285 2.6315789222717285" numOctaves="3" seed="1593" />
<feDisplacementMap in="shape" scale="0.2199999988079071" xChannelSelector="R" yChannelSelector="G" result="displacedImage" width="100%" height="100%" />
<feMerge result="effect1_texture_3_341">
<feMergeNode in="displacedImage"/>
</feMerge>
</filter>
<filter id="filter8_g_3_341" x="25.6958" y="8.66521" width="127.113" height="127.113" filterUnits="userSpaceOnUse" color-interpolation-filters="sRGB">
<feFlood flood-opacity="0" result="BackgroundImageFix"/>
<feBlend mode="normal" in="SourceGraphic" in2="BackgroundImageFix" result="shape"/>
<feTurbulence type="fractalNoise" baseFrequency="3.3333332538604736 3.3333332538604736" numOctaves="3" seed="1935" />
<feDisplacementMap in="shape" scale="0.60000002384185791" xChannelSelector="R" yChannelSelector="G" result="displacedImage" width="100%" height="100%" />
<feMerge result="effect1_texture_3_341">
<feMergeNode in="displacedImage"/>
</feMerge>
</filter>
<filter id="filter9_g_3_341" x="17.0306" y="-1.2219e-05" width="144.443" height="144.444" filterUnits="userSpaceOnUse" color-interpolation-filters="sRGB">
<feFlood flood-opacity="0" result="BackgroundImageFix"/>
<feBlend mode="normal" in="SourceGraphic" in2="BackgroundImageFix" result="shape"/>
<feTurbulence type="fractalNoise" baseFrequency="3.3333332538604736 3.3333332538604736" numOctaves="3" seed="1935" />
<feDisplacementMap in="shape" scale="0.60000002384185791" xChannelSelector="R" yChannelSelector="G" result="displacedImage" width="100%" height="100%" />
<feMerge result="effect1_texture_3_341">
<feMergeNode in="displacedImage"/>
</feMerge>
</filter>
<filter id="filter10_g_3_341" x="47.9951" y="47.8528" width="8.12773" height="4.39238" filterUnits="userSpaceOnUse" color-interpolation-filters="sRGB">
<feFlood flood-opacity="0" result="BackgroundImageFix"/>
<feBlend mode="normal" in="SourceGraphic" in2="BackgroundImageFix" result="shape"/>
<feTurbulence type="fractalNoise" baseFrequency="2 2" numOctaves="3" seed="8051" />
<feDisplacementMap in="shape" scale="0.20000000298023224" xChannelSelector="R" yChannelSelector="G" result="displacedImage" width="100%" height="100%" />
<feMerge result="effect1_texture_3_341">
<feMergeNode in="displacedImage"/>
</feMerge>
</filter>
<filter id="filter11_g_3_341" x="118.996" y="47.7972" width="13.2693" height="4.44219" filterUnits="userSpaceOnUse" color-interpolation-filters="sRGB">
<feFlood flood-opacity="0" result="BackgroundImageFix"/>
<feBlend mode="normal" in="SourceGraphic" in2="BackgroundImageFix" result="shape"/>
<feTurbulence type="fractalNoise" baseFrequency="2 2" numOctaves="3" seed="8051" />
<feDisplacementMap in="shape" scale="0.20000000298023224" xChannelSelector="R" yChannelSelector="G" result="displacedImage" width="100%" height="100%" />
<feMerge result="effect1_texture_3_341">
<feMergeNode in="displacedImage"/>
</feMerge>
</filter>
<filter id="filter12_g_3_341" x="22.2639" y="83.7064" width="136.98" height="46.9949" filterUnits="userSpaceOnUse" color-interpolation-filters="sRGB">
<feFlood flood-opacity="0" result="BackgroundImageFix"/>
<feBlend mode="normal" in="SourceGraphic" in2="BackgroundImageFix" result="shape"/>
<feTurbulence type="fractalNoise" baseFrequency="2 2" numOctaves="3" seed="8673" />
<feDisplacementMap in="shape" scale="0.23999999463558197" xChannelSelector="R" yChannelSelector="G" result="displacedImage" width="100%" height="100%" />
<feMerge result="effect1_texture_3_341">
<feMergeNode in="displacedImage"/>
</feMerge>
</filter>
</defs>
</svg>
