<svg width="13" height="12" viewBox="0 0 13 12" fill="none" xmlns="http://www.w3.org/2000/svg">
<path d="M10.625 3.75C10.1042 3.75 9.66146 3.56771 9.29688 3.20312C8.93229 2.83854 8.75 2.39583 8.75 1.875C8.75 1.35417 8.93229 0.911458 9.29688 0.546875C9.66146 0.182292 10.1042 0 10.625 0C11.1458 0 11.5885 0.182292 11.9531 0.546875C12.3177 0.911458 12.5 1.35417 12.5 1.875C12.5 2.39583 12.3177 2.83854 11.9531 3.20312C11.5885 3.56771 11.1458 3.75 10.625 3.75ZM1.25 11.25C0.90625 11.25 0.611979 11.1276 0.367188 10.8828C0.122396 10.638 0 10.3438 0 10V2.5C0 2.15625 0.122396 1.86198 0.367188 1.61719C0.611979 1.3724 0.90625 1.25 1.25 1.25H7.5625C7.52083 1.45833 7.5 1.66667 7.5 1.875C7.5 2.08333 7.52083 2.29167 7.5625 2.5C7.63542 2.83333 7.75521 3.14323 7.92188 3.42969C8.08854 3.71615 8.29167 3.96875 8.53125 4.1875L6.25 5.625L1.25 2.5V3.75L6.25 6.875L9.54688 4.8125C9.72396 4.875 9.90104 4.92188 10.0781 4.95313C10.2552 4.98438 10.4375 5 10.625 5C10.9583 5 11.2865 4.94792 11.6094 4.84375C11.9323 4.73958 12.2292 4.58333 12.5 4.375V10C12.5 10.3438 12.3776 10.638 12.1328 10.8828C11.888 11.1276 11.5938 11.25 11.25 11.25H1.25Z" fill="white"/>
</svg>
