<svg width="321" height="255" viewBox="0 0 321 255" fill="none" xmlns="http://www.w3.org/2000/svg">
<g filter="url(#filter0_g_15_10)">
<rect x="112.286" y="66.1113" width="15.8544" height="6.30231" rx="1" transform="rotate(47.7374 112.286 66.1113)" fill="white"/>
</g>
<g filter="url(#filter1_g_15_10)">
<path d="M115.127 65.2448C114.749 64.8252 114.791 64.1774 115.222 63.8122C118.013 61.4485 127.67 53.2445 135.09 46.6494C142.363 40.1841 151.867 45.5285 154.892 47.5348C155.41 47.8786 155.436 48.5993 154.974 49.0157L125.665 75.4399C125.255 75.8097 124.623 75.777 124.253 75.3668L115.127 65.2448Z" fill="white"/>
</g>
<g filter="url(#filter2_g_15_10)">
<path d="M137.581 70.4825C140.22 67.9816 144.361 68.0024 146.974 70.5295L187.84 110.04C191.808 113.876 191.723 120.263 187.655 123.993C183.649 127.665 177.394 127.275 173.876 123.133L137.077 79.8096C134.741 77.0599 134.963 72.964 137.581 70.4825Z" fill="white"/>
</g>
<g filter="url(#filter3_g_15_10)">
<rect x="141.895" y="72.5464" width="60.9546" height="3.34768" rx="1.67384" transform="rotate(47.0468 141.895 72.5464)" fill="#333333"/>
</g>
<g filter="url(#filter4_g_15_10)">
<rect x="133.947" y="99.7671" width="51.2575" height="17.0875" transform="rotate(-47.8995 133.947 99.7671)" fill="white"/>
</g>
<g filter="url(#filter5_g_15_10)">
<path d="M198.392 58.5504C199.504 67.6663 190.335 70.4576 184.198 74.1193C178.062 77.7809 167.096 71.8349 166.921 70.3997C166.746 68.9644 164.919 48.7004 179.802 44.0662C194.685 39.4319 197.281 49.4345 198.392 58.5504Z" fill="white"/>
</g>
<rect x="176.08" y="56.6523" width="32.7611" height="13.68" rx="5" transform="rotate(-29.3959 176.08 56.6523)" fill="#333333"/>
<rect x="135.196" y="49.2852" width="21.2543" height="11.625" rx="5" transform="rotate(-11.6419 135.196 49.2852)" fill="#333333"/>
<g filter="url(#filter6_g_15_10)">
<path d="M118.138 112.078C118.308 103.27 121.739 105.211 133.647 99.1971C145.554 93.1833 152.395 98.1705 149.488 105.051C146.581 111.932 142.588 128.502 133.78 128.333C124.972 128.164 117.969 120.886 118.138 112.078Z" fill="white"/>
</g>
<rect x="139.249" y="116.932" width="31.2527" height="11.7475" rx="5" transform="rotate(154.379 139.249 116.932)" fill="#333333"/>
<g filter="url(#filter7_g_15_10)">
<rect x="145.483" y="97.0342" width="34.8583" height="3.89872" rx="1.94936" transform="rotate(-47.8995 145.483 97.0342)" fill="#333333"/>
</g>
<g filter="url(#filter8_g_15_10)">
<circle cx="155.726" cy="125.788" r="109.369" stroke="white" stroke-width="2"/>
</g>
<g filter="url(#filter9_g_15_10)">
<circle cx="155.726" cy="125.788" r="123.488" stroke="white" stroke-width="4"/>
</g>
<rect y="169.633" width="320.524" height="84.6667" fill="#333333"/>
<g filter="url(#filter10_g_15_10)">
<path d="M88.2192 88.1118L88.9614 88.2046V89.9429H84.3178L84.2201 89.1128C84.308 88.9989 84.492 88.8882 84.7719 88.7808V84.2104C84.4952 84.1128 84.3113 84.0005 84.2201 83.8735L84.3178 83.0435H88.8783V84.7817L88.141 84.8745C87.9848 84.741 87.8611 84.4937 87.7699 84.1323H86.2123V85.8511H87.599C87.6804 85.6558 87.7634 85.5158 87.8481 85.4312L88.478 85.5044V87.2817L87.8481 87.3647C87.7667 87.2964 87.6837 87.1564 87.599 86.9448H86.2123V88.854H87.8481C87.936 88.5024 88.0597 88.255 88.2192 88.1118ZM91.5492 85.7632C91.1098 85.7632 90.8901 85.8934 90.8901 86.1538C90.8901 86.4012 91.1212 86.5835 91.5834 86.7007L92.3696 86.9106C93.1834 87.1255 93.5903 87.5959 93.5903 88.3218C93.5903 88.8198 93.4161 89.2284 93.0678 89.5474C92.892 89.7036 92.656 89.8208 92.3598 89.8989C92.0636 89.9738 91.7446 90.0145 91.4028 90.021C91.0642 90.0275 90.7354 90.0031 90.4164 89.9478C90.0974 89.8924 89.8289 89.811 89.6108 89.7036C89.6075 89.6678 89.6043 89.632 89.601 89.5962C89.601 89.5571 89.601 89.5197 89.601 89.4839C89.601 89.116 89.6742 88.7856 89.8207 88.4927H90.6508C90.742 88.6587 90.7989 88.8247 90.8217 88.9907C90.9487 89.033 91.1391 89.0542 91.393 89.0542C91.9789 89.0542 92.2719 88.8866 92.2719 88.5513C92.2719 88.4471 92.2328 88.3592 92.1547 88.2876C92.0701 88.2192 91.9122 88.1509 91.6811 88.0825L90.8901 87.853C90.4832 87.7391 90.1658 87.5715 89.9379 87.3501C89.7133 87.1255 89.601 86.7951 89.601 86.3589C89.601 85.9194 89.7784 85.5614 90.1332 85.2847C90.309 85.1447 90.5287 85.0405 90.7924 84.9722C91.0593 84.9038 91.3442 84.868 91.6469 84.8647C91.9496 84.8582 92.2459 84.881 92.5356 84.9331C92.8253 84.9819 93.0841 85.0552 93.3119 85.1528C93.3152 85.1854 93.3168 85.2179 93.3168 85.2505C93.3201 85.283 93.3217 85.3172 93.3217 85.353C93.3217 85.6948 93.2485 86.0155 93.102 86.3149H92.2817C92.1905 86.1554 92.1336 85.9943 92.1108 85.8315C91.9187 85.786 91.7315 85.7632 91.5492 85.7632ZM95.1528 83.6831H95.8803V84.9429H97.311V85.7827H95.8803V88.312C95.8803 88.5301 95.9112 88.6847 95.9731 88.7759C96.0186 88.8475 96.1033 88.8931 96.227 88.9126C96.3539 88.9289 96.4988 88.924 96.6615 88.8979C96.8243 88.8719 96.9806 88.8296 97.1303 88.771L97.433 89.5522C96.9187 89.8127 96.393 89.9429 95.8559 89.9429C95.3188 89.9429 94.9558 89.8289 94.767 89.6011C94.5782 89.37 94.4838 89.0347 94.4838 88.5952V85.7827H94.0346L93.9223 85.1724C94.0297 85.0454 94.2494 84.9185 94.5815 84.7915C94.6661 84.2414 94.8565 83.8719 95.1528 83.6831Z" fill="white"/>
</g>
<g filter="url(#filter11_g_15_10)">
<path d="M210.838 82.9604C212.28 82.9604 213.001 83.5448 213.001 84.7134C213.001 84.9673 212.937 85.2358 212.81 85.519C212.683 85.8022 212.532 86.0464 212.356 86.2515L210.906 87.9946C210.688 88.242 210.429 88.491 210.13 88.7417L209.968 88.8833L210.017 88.9907C210.326 88.9321 210.654 88.9028 210.999 88.9028H211.79C211.835 88.535 211.918 88.2485 212.039 88.0435L212.986 88.1021C213.136 88.3527 213.211 88.7563 213.211 89.313C213.211 89.5474 213.186 89.7573 213.137 89.9429H208.547L208.308 88.7026L210.798 86.0024C211.264 85.4914 211.497 85.0047 211.497 84.5425C211.497 84.2983 211.438 84.1209 211.321 84.0103C211.236 83.9321 211.108 83.8817 210.935 83.8589C210.763 83.8361 210.58 83.8361 210.388 83.8589C210.196 83.8784 210.03 83.9159 209.89 83.9712C209.825 84.4692 209.747 84.7931 209.656 84.9429L208.767 84.894C208.644 84.6759 208.574 84.3049 208.557 83.7808C208.557 83.7254 208.557 83.6782 208.557 83.6392C208.561 83.5968 208.564 83.5643 208.567 83.5415C209.169 83.1541 209.926 82.9604 210.838 82.9604ZM219.641 86.3198C219.641 87.0132 219.565 87.5959 219.412 88.0679C219.259 88.5399 219.044 88.9191 218.767 89.2056C218.494 89.492 218.172 89.6987 217.8 89.8257C217.433 89.9526 217.032 90.0161 216.599 90.0161C216.004 90.0161 215.497 89.8989 215.081 89.6646C214.667 89.4269 214.352 89.0477 214.133 88.5269C213.919 88.006 213.811 87.3175 213.811 86.4614C213.811 85.2765 214.078 84.396 214.612 83.8198C215.149 83.2404 215.878 82.9507 216.799 82.9507C217.743 82.9507 218.453 83.2144 218.928 83.7417C219.404 84.2658 219.641 85.1252 219.641 86.3198ZM218.147 86.4907C218.147 84.8924 217.667 84.0933 216.707 84.0933C216.257 84.0933 215.914 84.2658 215.676 84.6108C215.579 84.7541 215.501 84.9478 215.442 85.1919C215.383 85.4328 215.344 85.6997 215.325 85.9927C215.305 86.2856 215.307 86.5802 215.33 86.8765C215.352 87.1694 215.393 87.4412 215.452 87.6919C215.514 87.9425 215.595 88.146 215.696 88.3022C215.95 88.6961 216.298 88.8931 216.741 88.8931C217.184 88.8931 217.529 88.7091 217.776 88.3413C218.023 87.9702 218.147 87.3534 218.147 86.4907ZM222.693 82.9604C224.135 82.9604 224.856 83.5448 224.856 84.7134C224.856 84.9673 224.793 85.2358 224.666 85.519C224.539 85.8022 224.387 86.0464 224.212 86.2515L222.761 87.9946C222.543 88.242 222.284 88.491 221.985 88.7417L221.824 88.8833L221.873 88.9907C222.182 88.9321 222.509 88.9028 222.854 88.9028H223.645C223.691 88.535 223.774 88.2485 223.894 88.0435L224.841 88.1021C224.991 88.3527 225.066 88.7563 225.066 89.313C225.066 89.5474 225.042 89.7573 224.993 89.9429H220.403L220.164 88.7026L222.654 86.0024C223.119 85.4914 223.352 85.0047 223.352 84.5425C223.352 84.2983 223.294 84.1209 223.176 84.0103C223.092 83.9321 222.963 83.8817 222.791 83.8589C222.618 83.8361 222.436 83.8361 222.244 83.8589C222.052 83.8784 221.886 83.9159 221.746 83.9712C221.681 84.4692 221.602 84.7931 221.511 84.9429L220.623 84.894C220.499 84.6759 220.429 84.3049 220.413 83.7808C220.413 83.7254 220.413 83.6782 220.413 83.6392C220.416 83.5968 220.419 83.5643 220.422 83.5415C221.025 83.1541 221.782 82.9604 222.693 82.9604ZM228.001 85.5239C228.655 85.5239 229.166 85.6997 229.534 86.0513C229.905 86.3996 230.09 86.9204 230.09 87.6138C230.09 88.4341 229.848 89.0412 229.363 89.4351C228.881 89.8257 228.207 90.021 227.341 90.021C227.156 90.021 226.954 90.0015 226.736 89.9624C226.521 89.9266 226.316 89.8794 226.121 89.8208C225.929 89.759 225.772 89.6922 225.652 89.6206L225.974 88.7515C226.352 88.8979 226.762 88.9712 227.205 88.9712C227.644 88.9712 227.973 88.8817 228.191 88.7026C228.412 88.5236 228.523 88.2339 228.523 87.8335C228.523 87.2899 228.396 86.9334 228.142 86.7642C227.944 86.6242 227.704 86.5542 227.424 86.5542C227.151 86.5542 226.786 86.5868 226.331 86.6519L225.93 85.9146H225.921V83.0435H229.612V84.1812H227.171V85.5825C227.385 85.5435 227.662 85.5239 228.001 85.5239Z" fill="white"/>
</g>
<g filter="url(#filter12_g_15_10)">
<path d="M103.543 150.712C103.543 151.798 103.203 152.708 102.524 153.442C101.844 154.177 100.993 154.735 99.9691 155.118C100.766 155.454 101.293 155.864 101.551 156.349L103.297 159.688C104.063 159.931 104.578 160.224 104.844 160.567L104.598 162.419H100.543L97.7777 156.536C97.5355 155.942 97.2426 155.646 96.8988 155.646H95.3402V159.489C96.4965 159.747 97.223 160.06 97.5199 160.427L97.2738 162.419H90.7933L90.559 160.427C90.7699 160.153 91.2113 159.888 91.8832 159.63V148.661C91.2191 148.427 90.7777 148.157 90.559 147.853L90.7933 145.86H96.9222C98.4144 145.876 99.6488 146.036 100.625 146.341C101.602 146.638 102.332 147.138 102.817 147.841C103.301 148.536 103.543 149.493 103.543 150.712ZM96.7465 148.474H95.3402V153.032H96.6996C97.7933 153.032 98.6058 152.868 99.1371 152.54C99.6761 152.212 99.9457 151.622 99.9457 150.771C99.9457 149.927 99.6722 149.333 99.1254 148.989C98.5863 148.646 97.7933 148.474 96.7465 148.474ZM105.629 147.853L105.864 145.86H111.489L111.723 147.853C111.465 148.157 111.028 148.427 110.411 148.661V159.63C111.028 159.88 111.465 160.146 111.723 160.427L111.489 162.419H105.864L105.629 160.427C105.84 160.153 106.282 159.888 106.953 159.63V148.661C106.289 148.427 105.848 148.157 105.629 147.853ZM120.254 148.38C119.168 148.38 118.325 148.798 117.723 149.634C117.121 150.462 116.821 151.907 116.821 153.97C116.821 157.923 117.911 159.899 120.09 159.899C120.942 159.899 121.707 159.763 122.387 159.489V156.782C121.645 156.532 121.141 156.235 120.875 155.892L121.121 153.993H126.735L126.981 155.892C126.77 156.149 126.391 156.396 125.844 156.63V161.071C125.078 161.634 124.235 162.032 123.313 162.267C122.391 162.493 121.243 162.606 119.868 162.606C117.578 162.606 115.899 161.958 114.828 160.661C113.758 159.356 113.223 157.235 113.223 154.298C113.223 151.36 113.86 149.188 115.133 147.782C116.414 146.368 118.161 145.661 120.371 145.661C122.59 145.661 124.399 146.169 125.797 147.185V147.724C125.797 147.903 125.77 148.181 125.715 148.556C125.668 148.923 125.598 149.31 125.504 149.716C125.411 150.114 125.293 150.454 125.153 150.735H122.938C122.696 150.267 122.536 149.603 122.457 148.743C121.778 148.501 121.043 148.38 120.254 148.38ZM138.207 159.63V154.837H132.934V159.63C133.551 159.88 133.989 160.146 134.246 160.427L134.012 162.419H128.387L128.153 160.427C128.364 160.153 128.805 159.888 129.477 159.63V148.661C128.813 148.427 128.371 148.157 128.153 147.853L128.387 145.86H134.012L134.246 147.853C133.989 148.157 133.551 148.427 132.934 148.661V152.435H138.207V148.661C137.543 148.427 137.102 148.157 136.883 147.853L137.129 145.86H142.743L142.989 147.853C142.731 148.157 142.289 148.427 141.664 148.661V159.63C142.289 159.88 142.731 160.146 142.989 160.427L142.743 162.419H137.129L136.883 160.427C137.094 160.153 137.536 159.888 138.207 159.63ZM145.45 149.505L143.938 149.317V145.884H157.379V149.317L155.868 149.505C155.657 149.356 155.457 149.021 155.27 148.497H152.387V159.63C153.012 159.88 153.453 160.146 153.711 160.427L153.465 162.419H147.852L147.606 160.427C147.817 160.153 148.258 159.888 148.93 159.63V148.497H146.047C145.86 149.021 145.661 149.356 145.45 149.505ZM165.278 159.513L169.883 145.743H173.176L177.957 159.583C178.629 159.825 179.098 160.106 179.364 160.427L179.129 162.419H173.516L173.27 160.427C173.465 160.177 173.852 159.938 174.43 159.712L173.774 157.696H168.981L168.371 159.63C168.934 159.856 169.352 160.122 169.625 160.427L169.379 162.419H163.907L163.672 160.427C163.969 160.06 164.504 159.755 165.278 159.513ZM171.547 149.505L171.524 149.095H171.184C171.184 150.063 170.985 151.2 170.586 152.505L169.649 155.481H173.082L172.168 152.552C171.801 151.427 171.594 150.411 171.547 149.505ZM188.539 153.442L186.524 162.536H182.821L178.989 148.661C178.325 148.427 177.883 148.157 177.664 147.853L177.899 145.86H183.453L183.688 147.853C183.407 148.181 182.973 148.442 182.387 148.638L184.098 155.728C184.356 156.743 184.555 157.759 184.696 158.774L184.743 159.185H185.082C185.098 158.231 185.25 157.095 185.539 155.774L187.696 146.024H191.364L193.532 155.728C193.774 156.884 193.95 157.899 194.059 158.774L194.106 159.208H194.446C194.485 158.216 194.676 157.071 195.02 155.774L196.907 148.743C196.227 148.493 195.766 148.196 195.524 147.853L195.758 145.86H201.067L201.301 147.853C201.004 148.228 200.469 148.54 199.696 148.79L195.664 162.536H191.891L189.957 153.466C189.848 152.919 189.75 152.384 189.664 151.86C189.578 151.329 189.508 150.802 189.453 150.278L189.395 149.798H189.067C189.004 150.907 188.828 152.122 188.539 153.442ZM201.09 159.513L205.696 145.743H208.989L213.77 159.583C214.442 159.825 214.911 160.106 215.176 160.427L214.942 162.419H209.328L209.082 160.427C209.278 160.177 209.664 159.938 210.243 159.712L209.586 157.696H204.793L204.184 159.63C204.746 159.856 205.164 160.122 205.438 160.427L205.192 162.419H199.719L199.485 160.427C199.782 160.06 200.317 159.755 201.09 159.513ZM207.36 149.505L207.336 149.095H206.996C206.996 150.063 206.797 151.2 206.399 152.505L205.461 155.481H208.895L207.981 152.552C207.614 151.427 207.407 150.411 207.36 149.505ZM223.532 160.427L223.297 162.419H217.684L217.438 160.427C217.649 160.153 218.09 159.888 218.762 159.63V156.876L214.848 148.743C214.09 148.485 213.578 148.188 213.313 147.853L213.524 145.978V145.954L213.547 145.86H219.172L219.407 147.853C219.211 148.134 218.844 148.372 218.305 148.567L219.125 150.419C219.586 151.489 219.985 152.536 220.321 153.56L220.485 154.04H220.848C221.02 153.462 221.215 152.872 221.434 152.271C221.653 151.661 221.899 151.044 222.172 150.419L222.934 148.661C222.301 148.419 221.871 148.149 221.645 147.853L221.879 145.86H227.352L227.598 147.853C227.286 148.212 226.754 148.517 226.004 148.767L222.219 156.876V159.63C222.852 159.88 223.289 160.146 223.532 160.427Z" fill="white"/>
<path d="M75.1488 195.2C75.1488 198.096 74.2426 200.523 72.4301 202.481C70.6176 204.44 68.3467 205.929 65.6176 206.95C67.7426 207.846 69.1488 208.94 69.8363 210.231L74.4926 219.138C76.5342 219.784 77.9092 220.565 78.6176 221.481L77.9613 226.419H67.1488L59.7738 210.731C59.128 209.148 58.3467 208.356 57.4301 208.356H53.2738V218.606C56.3571 219.294 58.2946 220.127 59.0863 221.106L58.4301 226.419H41.1488L40.5238 221.106C41.0863 220.377 42.2634 219.669 44.0551 218.981V189.731C42.2842 189.106 41.1071 188.388 40.5238 187.575L41.1488 182.263H57.4926C61.4717 182.304 64.7634 182.731 67.3676 183.544C69.9717 184.336 71.9196 185.669 73.2113 187.544C74.503 189.398 75.1488 191.95 75.1488 195.2ZM57.0238 189.231H53.2738V201.388H56.8988C59.8155 201.388 61.9821 200.95 63.3988 200.075C64.8363 199.2 65.5551 197.627 65.5551 195.356C65.5551 193.106 64.8259 191.523 63.3676 190.606C61.9301 189.69 59.8155 189.231 57.0238 189.231ZM106.305 214.7L111.055 215.294V226.419H81.3363L80.7113 221.106C81.2738 220.377 82.4509 219.669 84.2426 218.981V189.731C82.4717 189.106 81.2946 188.388 80.7113 187.575L81.3363 182.263H110.524V193.388L105.805 193.981C104.805 193.127 104.013 191.544 103.43 189.231H93.4613V200.231H102.336C102.857 198.981 103.388 198.086 103.93 197.544L107.961 198.013V209.388L103.93 209.919C103.409 209.481 102.878 208.586 102.336 207.231H93.4613V219.45H103.93C104.493 217.2 105.284 215.617 106.305 214.7ZM130.836 211.044H127.961V218.606C131.045 219.294 132.982 220.127 133.774 221.106L133.118 226.419H115.836L115.211 221.106C115.774 220.377 116.951 219.669 118.743 218.981V189.731C116.972 189.106 115.795 188.388 115.211 187.575L115.836 182.263H132.805C136.763 182.304 140.045 182.784 142.649 183.7C145.274 184.596 147.232 186.075 148.524 188.138C149.815 190.2 150.461 193.002 150.461 196.544C150.461 206.211 143.92 211.044 130.836 211.044ZM131.774 189.231H127.961V204.075H132.243C135.138 204.075 137.295 203.502 138.711 202.356C140.149 201.19 140.868 199.19 140.868 196.356C140.868 193.502 140.086 191.606 138.524 190.669C136.982 189.711 134.732 189.231 131.774 189.231ZM152.711 218.669L164.993 181.95H173.774L186.524 218.856C188.315 219.502 189.565 220.252 190.274 221.106L189.649 226.419H174.68L174.024 221.106C174.545 220.44 175.576 219.804 177.118 219.2L175.368 213.825H162.586L160.961 218.981C162.461 219.586 163.576 220.294 164.305 221.106L163.649 226.419H149.055L148.43 221.106C149.222 220.127 150.649 219.315 152.711 218.669ZM169.43 191.981L169.368 190.888H168.461C168.461 193.471 167.93 196.502 166.868 199.981L164.368 207.919H173.524L171.086 200.106C170.107 197.106 169.555 194.398 169.43 191.981ZM192.086 187.575L192.711 182.263H207.711L208.336 187.575C207.649 188.388 206.482 189.106 204.836 189.731V218.981C206.482 219.648 207.649 220.356 208.336 221.106L207.711 226.419H192.711L192.086 221.106C192.649 220.377 193.826 219.669 195.618 218.981V189.731C193.847 189.106 192.67 188.388 192.086 187.575ZM247.086 195.2C247.086 198.096 246.18 200.523 244.368 202.481C242.555 204.44 240.284 205.929 237.555 206.95C239.68 207.846 241.086 208.94 241.774 210.231L246.43 219.138C248.472 219.784 249.847 220.565 250.555 221.481L249.899 226.419H239.086L231.711 210.731C231.065 209.148 230.284 208.356 229.368 208.356H225.211V218.606C228.295 219.294 230.232 220.127 231.024 221.106L230.368 226.419H213.086L212.461 221.106C213.024 220.377 214.201 219.669 215.993 218.981V189.731C214.222 189.106 213.045 188.388 212.461 187.575L213.086 182.263H229.43C233.409 182.304 236.701 182.731 239.305 183.544C241.909 184.336 243.857 185.669 245.149 187.544C246.44 189.398 247.086 191.95 247.086 195.2ZM228.961 189.231H225.211V201.388H228.836C231.753 201.388 233.92 200.95 235.336 200.075C236.774 199.2 237.493 197.627 237.493 195.356C237.493 193.106 236.763 191.523 235.305 190.606C233.868 189.69 231.753 189.231 228.961 189.231ZM272.305 189.231C270.847 188.856 269.336 188.669 267.774 188.669C266.19 188.669 264.92 189.054 263.961 189.825C262.982 190.617 262.493 191.731 262.493 193.169C262.493 194.606 262.857 195.731 263.586 196.544C264.315 197.336 265.743 198.034 267.868 198.638L273.586 200.294C276.649 201.19 279.086 202.596 280.899 204.513C282.711 206.409 283.618 209.19 283.618 212.856C283.618 215.752 282.899 218.252 281.461 220.356C280.024 222.461 278.065 224.086 275.586 225.231C273.128 226.356 270.347 226.919 267.243 226.919C264.68 226.919 262.045 226.596 259.336 225.95C256.628 225.284 254.378 224.356 252.586 223.169V221.669C252.586 221.19 252.649 220.461 252.774 219.481C252.92 218.502 253.118 217.481 253.368 216.419C253.638 215.336 253.951 214.419 254.305 213.669H260.399C261.086 215.023 261.493 216.794 261.618 218.981C263.055 219.627 264.795 219.95 266.836 219.95C268.815 219.95 270.44 219.481 271.711 218.544C273.003 217.606 273.649 216.263 273.649 214.513C273.649 213.679 273.586 213.002 273.461 212.481C273.336 211.94 272.94 211.367 272.274 210.763C271.607 210.159 270.659 209.659 269.43 209.263L262.836 207.356C256.128 205.461 252.774 201.19 252.774 194.544C252.774 191.961 253.409 189.711 254.68 187.794C255.972 185.877 257.763 184.388 260.055 183.325C262.347 182.263 265.013 181.731 268.055 181.731C272.618 181.731 277.065 182.763 281.399 184.825V186.294C281.399 186.773 281.326 187.513 281.18 188.513C281.055 189.492 280.857 190.513 280.586 191.575C280.336 192.638 280.024 193.544 279.649 194.294H273.586C272.857 193.252 272.43 191.565 272.305 189.231Z" fill="#FF964B"/>
</g>
<defs>
<filter id="filter0_g_15_10" x="107.835" y="66.3239" width="14.9015" height="15.5465" filterUnits="userSpaceOnUse" color-interpolation-filters="sRGB">
<feFlood flood-opacity="0" result="BackgroundImageFix"/>
<feBlend mode="normal" in="SourceGraphic" in2="BackgroundImageFix" result="shape"/>
<feTurbulence type="fractalNoise" baseFrequency="2 2" numOctaves="3" seed="339" />
<feDisplacementMap in="shape" scale="0.40000000596046448" xChannelSelector="R" yChannelSelector="G" result="displacedImage" width="100%" height="100%" />
<feMerge result="effect1_texture_15_10">
<feMergeNode in="displacedImage"/>
</feMerge>
</filter>
<filter id="filter1_g_15_10" x="114.669" y="43.3513" width="40.8326" height="32.546" filterUnits="userSpaceOnUse" color-interpolation-filters="sRGB">
<feFlood flood-opacity="0" result="BackgroundImageFix"/>
<feBlend mode="normal" in="SourceGraphic" in2="BackgroundImageFix" result="shape"/>
<feTurbulence type="fractalNoise" baseFrequency="2 2" numOctaves="3" seed="339" />
<feDisplacementMap in="shape" scale="0.40000000596046448" xChannelSelector="R" yChannelSelector="G" result="displacedImage" width="100%" height="100%" />
<feMerge result="effect1_texture_15_10">
<feMergeNode in="displacedImage"/>
</feMerge>
</filter>
<filter id="filter2_g_15_10" x="135.261" y="68.4206" width="55.7005" height="58.2911" filterUnits="userSpaceOnUse" color-interpolation-filters="sRGB">
<feFlood flood-opacity="0" result="BackgroundImageFix"/>
<feBlend mode="normal" in="SourceGraphic" in2="BackgroundImageFix" result="shape"/>
<feTurbulence type="fractalNoise" baseFrequency="2 2" numOctaves="3" seed="339" />
<feDisplacementMap in="shape" scale="0.40000000596046448" xChannelSelector="R" yChannelSelector="G" result="displacedImage" width="100%" height="100%" />
<feMerge result="effect1_texture_15_10">
<feMergeNode in="displacedImage"/>
</feMerge>
</filter>
<filter id="filter3_g_15_10" x="140.027" y="73.1283" width="42.8211" height="45.7307" filterUnits="userSpaceOnUse" color-interpolation-filters="sRGB">
<feFlood flood-opacity="0" result="BackgroundImageFix"/>
<feBlend mode="normal" in="SourceGraphic" in2="BackgroundImageFix" result="shape"/>
<feTurbulence type="fractalNoise" baseFrequency="2.6315789222717285 2.6315789222717285" numOctaves="3" seed="1593" />
<feDisplacementMap in="shape" scale="0.2199999988079071" xChannelSelector="R" yChannelSelector="G" result="displacedImage" width="100%" height="100%" />
<feMerge result="effect1_texture_15_10">
<feMergeNode in="displacedImage"/>
</feMerge>
</filter>
<filter id="filter4_g_15_10" x="133.747" y="61.5354" width="47.4432" height="49.8878" filterUnits="userSpaceOnUse" color-interpolation-filters="sRGB">
<feFlood flood-opacity="0" result="BackgroundImageFix"/>
<feBlend mode="normal" in="SourceGraphic" in2="BackgroundImageFix" result="shape"/>
<feTurbulence type="fractalNoise" baseFrequency="1 1" numOctaves="3" seed="3145" />
<feDisplacementMap in="shape" scale="0.40000000596046448" xChannelSelector="R" yChannelSelector="G" result="displacedImage" width="100%" height="100%" />
<feMerge result="effect1_texture_15_10">
<feMergeNode in="displacedImage"/>
</feMerge>
</filter>
<filter id="filter5_g_15_10" x="166.561" y="42.6945" width="32.1236" height="32.7984" filterUnits="userSpaceOnUse" color-interpolation-filters="sRGB">
<feFlood flood-opacity="0" result="BackgroundImageFix"/>
<feBlend mode="normal" in="SourceGraphic" in2="BackgroundImageFix" result="shape"/>
<feTurbulence type="fractalNoise" baseFrequency="1 1" numOctaves="3" seed="3145" />
<feDisplacementMap in="shape" scale="0.40000000596046448" xChannelSelector="R" yChannelSelector="G" result="displacedImage" width="100%" height="100%" />
<feMerge result="effect1_texture_15_10">
<feMergeNode in="displacedImage"/>
</feMerge>
</filter>
<filter id="filter6_g_15_10" x="117.935" y="96.3039" width="32.4191" height="32.2306" filterUnits="userSpaceOnUse" color-interpolation-filters="sRGB">
<feFlood flood-opacity="0" result="BackgroundImageFix"/>
<feBlend mode="normal" in="SourceGraphic" in2="BackgroundImageFix" result="shape"/>
<feTurbulence type="fractalNoise" baseFrequency="2 2" numOctaves="3" seed="339" />
<feDisplacementMap in="shape" scale="0.40000000596046448" xChannelSelector="R" yChannelSelector="G" result="displacedImage" width="100%" height="100%" />
<feMerge result="effect1_texture_15_10">
<feMergeNode in="displacedImage"/>
</feMerge>
</filter>
<filter id="filter7_g_15_10" x="146.177" y="71.8641" width="24.8751" height="27.0901" filterUnits="userSpaceOnUse" color-interpolation-filters="sRGB">
<feFlood flood-opacity="0" result="BackgroundImageFix"/>
<feBlend mode="normal" in="SourceGraphic" in2="BackgroundImageFix" result="shape"/>
<feTurbulence type="fractalNoise" baseFrequency="2.6315789222717285 2.6315789222717285" numOctaves="3" seed="1593" />
<feDisplacementMap in="shape" scale="0.2199999988079071" xChannelSelector="R" yChannelSelector="G" result="displacedImage" width="100%" height="100%" />
<feMerge result="effect1_texture_15_10">
<feMergeNode in="displacedImage"/>
</feMerge>
</filter>
<filter id="filter8_g_15_10" x="45.0571" y="15.1189" width="221.338" height="221.338" filterUnits="userSpaceOnUse" color-interpolation-filters="sRGB">
<feFlood flood-opacity="0" result="BackgroundImageFix"/>
<feBlend mode="normal" in="SourceGraphic" in2="BackgroundImageFix" result="shape"/>
<feTurbulence type="fractalNoise" baseFrequency="3.3333332538604736 3.3333332538604736" numOctaves="3" seed="1935" />
<feDisplacementMap in="shape" scale="0.60000002384185791" xChannelSelector="R" yChannelSelector="G" result="displacedImage" width="100%" height="100%" />
<feMerge result="effect1_texture_15_10">
<feMergeNode in="displacedImage"/>
</feMerge>
</filter>
<filter id="filter9_g_15_10" x="29.9381" y="-0.000195324" width="251.576" height="251.576" filterUnits="userSpaceOnUse" color-interpolation-filters="sRGB">
<feFlood flood-opacity="0" result="BackgroundImageFix"/>
<feBlend mode="normal" in="SourceGraphic" in2="BackgroundImageFix" result="shape"/>
<feTurbulence type="fractalNoise" baseFrequency="3.3333332538604736 3.3333332538604736" numOctaves="3" seed="1935" />
<feDisplacementMap in="shape" scale="0.60000002384185791" xChannelSelector="R" yChannelSelector="G" result="displacedImage" width="100%" height="100%" />
<feMerge result="effect1_texture_15_10">
<feMergeNode in="displacedImage"/>
</feMerge>
</filter>
<filter id="filter10_g_15_10" x="84.0202" y="82.8435" width="13.6129" height="7.3873" filterUnits="userSpaceOnUse" color-interpolation-filters="sRGB">
<feFlood flood-opacity="0" result="BackgroundImageFix"/>
<feBlend mode="normal" in="SourceGraphic" in2="BackgroundImageFix" result="shape"/>
<feTurbulence type="fractalNoise" baseFrequency="0.90909087657928467 0.90909087657928467" numOctaves="3" seed="7882" />
<feDisplacementMap in="shape" scale="0.40000000596046448" xChannelSelector="R" yChannelSelector="G" result="displacedImage" width="100%" height="100%" />
<feMerge result="effect1_texture_15_10">
<feMergeNode in="displacedImage"/>
</feMerge>
</filter>
<filter id="filter11_g_15_10" x="208.108" y="82.7507" width="22.1822" height="7.47031" filterUnits="userSpaceOnUse" color-interpolation-filters="sRGB">
<feFlood flood-opacity="0" result="BackgroundImageFix"/>
<feBlend mode="normal" in="SourceGraphic" in2="BackgroundImageFix" result="shape"/>
<feTurbulence type="fractalNoise" baseFrequency="0.90909087657928467 0.90909087657928467" numOctaves="3" seed="7882" />
<feDisplacementMap in="shape" scale="0.40000000596046448" xChannelSelector="R" yChannelSelector="G" result="displacedImage" width="100%" height="100%" />
<feMerge result="effect1_texture_15_10">
<feMergeNode in="displacedImage"/>
</feMerge>
</filter>
<filter id="filter12_g_15_10" x="40.4038" y="145.541" width="243.334" height="81.4978" filterUnits="userSpaceOnUse" color-interpolation-filters="sRGB">
<feFlood flood-opacity="0" result="BackgroundImageFix"/>
<feBlend mode="normal" in="SourceGraphic" in2="BackgroundImageFix" result="shape"/>
<feTurbulence type="fractalNoise" baseFrequency="2 2" numOctaves="3" seed="8673" />
<feDisplacementMap in="shape" scale="0.23999999463558197" xChannelSelector="R" yChannelSelector="G" result="displacedImage" width="100%" height="100%" />
<feMerge result="effect1_texture_15_10">
<feMergeNode in="displacedImage"/>
</feMerge>
</filter>
</defs>
</svg>
