<svg width="17" height="17" viewBox="0 0 17 17" fill="none" xmlns="http://www.w3.org/2000/svg">
<path d="M16.2448 12.3117V14.6867C16.2457 14.9072 16.2005 15.1255 16.1122 15.3275C16.0238 15.5295 15.8943 15.7108 15.7318 15.8599C15.5694 16.0089 15.3775 16.1224 15.1687 16.1931C14.9598 16.2637 14.7385 16.2899 14.5189 16.2701C12.0828 16.0054 9.7428 15.1729 7.68684 13.8397C5.77404 12.6242 4.15232 11.0025 2.93684 9.08966C1.59891 7.02436 0.766285 4.67295 0.506426 2.22591C0.486642 2.00699 0.51266 1.78635 0.582822 1.57803C0.652984 1.36971 0.765753 1.17829 0.913949 1.01594C1.06214 0.853598 1.24252 0.723888 1.44359 0.635073C1.64467 0.546258 1.86203 0.500284 2.08184 0.500077H4.45684C4.84104 0.496295 5.21351 0.632347 5.50482 0.882873C5.79613 1.1334 5.9864 1.48131 6.04018 1.86174C6.14042 2.6218 6.32632 3.36807 6.59434 4.08633C6.70086 4.36968 6.72391 4.67763 6.66077 4.97369C6.59763 5.26975 6.45094 5.5415 6.23809 5.75674L5.23268 6.76216C6.35966 8.74413 8.0007 10.3852 9.98268 11.5122L10.9881 10.5067C11.2033 10.2939 11.4751 10.1472 11.7711 10.0841C12.0672 10.0209 12.3752 10.044 12.6585 10.1505C13.3768 10.4185 14.123 10.6044 14.8831 10.7047C15.2677 10.7589 15.6189 10.9526 15.8699 11.2489C16.121 11.5452 16.2544 11.9235 16.2448 12.3117Z" fill="#FF964B" stroke="#FF964B" stroke-linecap="round" stroke-linejoin="round"/>
</svg>
