<svg width="12" height="12" viewBox="0 0 12 12" fill="none" xmlns="http://www.w3.org/2000/svg">
<path d="M11.2727 8.58172V10.2067C11.2733 10.3576 11.2424 10.5069 11.182 10.6451C11.1216 10.7833 11.0329 10.9074 10.9218 11.0094C10.8106 11.1114 10.6794 11.189 10.5365 11.2374C10.3936 11.2857 10.2421 11.3036 10.0919 11.2901C8.4251 11.1089 6.82402 10.5394 5.41731 9.62714C4.10855 8.7955 2.99895 7.6859 2.16731 6.37714C1.25188 4.96404 0.682195 3.35517 0.504397 1.68089C0.490861 1.5311 0.508662 1.38013 0.556668 1.2376C0.604673 1.09507 0.681831 0.964093 0.783228 0.853014C0.884626 0.741935 1.00804 0.653187 1.14562 0.592419C1.28319 0.53165 1.43191 0.500194 1.58231 0.500053H3.20731C3.47019 0.497465 3.72503 0.590553 3.92435 0.761966C4.12367 0.933379 4.25386 1.17142 4.29065 1.43172C4.35923 1.95176 4.48643 2.46236 4.66981 2.9538C4.74269 3.14768 4.75846 3.35838 4.71526 3.56095C4.67206 3.76351 4.5717 3.94945 4.42606 4.09672L3.73815 4.78464C4.50924 6.14072 5.63206 7.26354 6.98815 8.03464L7.67606 7.34672C7.82334 7.20109 8.00927 7.10072 8.21184 7.05752C8.4144 7.01432 8.6251 7.03009 8.81898 7.10297C9.31042 7.28635 9.82103 7.41355 10.3411 7.48214C10.6042 7.51926 10.8445 7.65179 11.0163 7.85453C11.188 8.05727 11.2793 8.31607 11.2727 8.58172Z" stroke="white" stroke-linecap="round" stroke-linejoin="round"/>
</svg>
