<svg width="193" height="158" viewBox="0 0 193 158" fill="none" xmlns="http://www.w3.org/2000/svg">
<g filter="url(#filter0_g_3_435)">
<rect x="71.3695" y="41.884" width="9.08672" height="3.61208" rx="1" transform="rotate(51.5216 71.3695 41.884)" fill="white"/>
</g>
<g filter="url(#filter1_g_3_435)">
<path d="M73.3002 41.8425C72.9503 41.3988 73.0333 40.7563 73.4875 40.42C75.5249 38.9115 80.9273 34.8957 85.1469 31.6169C89.2344 28.4406 94.0358 31.1546 96.0271 32.57C96.534 32.9303 96.5176 33.6523 96.0292 34.0374L79.0033 47.461C78.5696 47.8029 77.9408 47.7285 77.5988 47.2948L73.3002 41.8425Z" fill="white"/>
</g>
<g filter="url(#filter2_g_3_435)">
<path d="M85.6702 45.3406C87.274 44.0103 89.6409 44.1787 91.0401 45.7228L112.916 69.8642C115.04 72.2082 114.75 75.8573 112.282 77.8364C109.853 79.7851 106.29 79.3253 104.435 76.8235L85.0287 50.6556C83.7971 48.9947 84.0787 46.6607 85.6702 45.3406Z" fill="white"/>
</g>
<g filter="url(#filter3_g_3_435)">
<rect x="88.059" y="46.6843" width="34.9353" height="1.91868" rx="0.959338" transform="rotate(50.831 88.059 46.6843)" fill="#D1702A"/>
</g>
<g filter="url(#filter4_g_3_435)">
<rect x="82.4837" y="61.9509" width="29.3775" height="9.79346" transform="rotate(-44.1153 82.4837 61.9509)" fill="white"/>
</g>
<g filter="url(#filter5_g_3_435)">
<path d="M120.898 40.8171C121.189 46.0724 115.84 47.3219 112.192 49.1838C108.544 51.0457 102.498 47.2305 102.452 46.4031C102.406 45.5756 102.128 33.9179 110.815 31.8306C119.501 29.7432 120.608 35.5618 120.898 40.8171Z" fill="white"/>
</g>
<rect x="108.21" y="38.8877" width="18.7766" height="7.84048" rx="3.92024" transform="rotate(-25.6116 108.21 38.8877)" fill="#BA4E00"/>
<rect x="85.1077" y="33.1282" width="12.1816" height="6.66271" rx="3.33135" transform="rotate(-7.85769 85.1077 33.1282)" fill="#BA4E00"/>
<g filter="url(#filter6_g_3_435)">
<path d="M72.9776 68.3935C73.4076 63.3628 75.2963 64.6024 82.3337 61.6136C89.371 58.6248 93.0944 61.7357 91.1717 65.5606C89.249 69.3856 86.3384 78.7111 81.3077 78.281C76.277 77.851 72.5475 73.4241 72.9776 68.3935Z" fill="white"/>
</g>
<rect x="84.8669" y="71.9678" width="17.9121" height="6.73293" rx="3.36646" transform="rotate(158.163 84.8669 71.9678)" fill="#BA4E00"/>
<g filter="url(#filter7_g_3_435)">
<rect x="89.1846" y="60.8245" width="19.9785" height="2.2345" rx="1.11725" transform="rotate(-44.1153 89.1846 60.8245)" fill="#D1702A"/>
</g>
<g filter="url(#filter8_g_3_435)">
<circle cx="93.9549" cy="77.6555" r="62.2565" transform="rotate(3.78423 93.9549 77.6555)" stroke="white" stroke-width="2"/>
</g>
<g filter="url(#filter9_g_3_435)">
<circle cx="93.9549" cy="77.6555" r="69.9217" transform="rotate(3.78423 93.9549 77.6555)" stroke="white" stroke-width="4"/>
</g>
<rect x="3.23872" y="96.8394" width="183.704" height="48.5255" transform="rotate(3.78423 3.23872 96.8394)" fill="#BA4E00"/>
<g filter="url(#filter10_g_3_435)">
<path d="M56.6827 53.9158L57.1234 54.0007L57.0545 55.0414L54.2745 54.8575L54.2489 54.3567C54.306 54.2919 54.4205 54.233 54.5924 54.1797L54.7733 51.4435C54.6116 51.3741 54.5059 51.2996 54.4564 51.22L54.5477 50.7269L57.2781 50.9075L57.2092 51.9482L56.7641 51.9745C56.6759 51.8884 56.6116 51.7354 56.5713 51.5155L55.6388 51.4538L55.5708 52.4828L56.401 52.5377C56.4574 52.424 56.5127 52.3435 56.5667 52.2962L56.9409 52.365L56.8705 53.429L56.4901 53.4538C56.4441 53.4097 56.4 53.3226 56.3577 53.1925L55.5274 53.1376L55.4518 54.2806L56.4311 54.3454C56.4977 54.1384 56.5815 53.9952 56.6827 53.9158ZM58.7694 52.6415C58.5063 52.6241 58.3696 52.6934 58.3593 52.8493C58.3495 52.9974 58.4806 53.1157 58.7527 53.2041L59.2151 53.361C59.6938 53.5218 59.9188 53.8196 59.89 54.2542C59.8703 54.5523 59.7499 54.79 59.5287 54.9672C59.4173 55.0538 59.2713 55.1146 59.0909 55.1497C58.9106 55.1827 58.718 55.1945 58.5131 55.1848C58.3102 55.1753 58.1143 55.1477 57.9255 55.1019C57.7367 55.0562 57.5791 54.9968 57.4528 54.9239C57.4523 54.9023 57.4518 54.8807 57.4512 54.8592C57.4528 54.8358 57.4542 54.8134 57.4557 54.7919C57.4702 54.5717 57.5272 54.3768 57.6265 54.2072L58.1234 54.2401C58.1714 54.3431 58.199 54.4447 58.206 54.545C58.2804 54.5754 58.3935 54.5956 58.5455 54.6056C58.8963 54.6288 59.0784 54.5401 59.0916 54.3393C59.0958 54.277 59.0759 54.2228 59.0319 54.1768C58.984 54.1326 58.8921 54.0854 58.7565 54.0353L58.292 53.8666C58.0529 53.7823 57.8695 53.6693 57.7419 53.5278C57.6163 53.3844 57.5621 53.1822 57.5794 52.921C57.5968 52.6579 57.7172 52.4506 57.9406 52.299C58.0514 52.2221 58.187 52.1685 58.3476 52.138C58.5101 52.1076 58.6821 52.0975 58.8634 52.1075C59.0449 52.1156 59.2214 52.141 59.3928 52.1836C59.5643 52.2243 59.7163 52.2784 59.8489 52.3459C59.8495 52.3655 59.8492 52.3851 59.8479 52.4046C59.8486 52.4242 59.8482 52.4447 59.8468 52.4662C59.8333 52.6708 59.7767 52.8598 59.6772 53.0333L59.186 53.0009C59.1378 52.9018 59.1101 52.803 59.1029 52.7047C58.9897 52.6698 58.8785 52.6487 58.7694 52.6415ZM61.0092 51.5389L61.4447 51.5677L61.3949 52.3219L62.2514 52.3786L62.2181 52.8814L61.3616 52.8247L61.2614 54.339C61.2528 54.4696 61.2652 54.5634 61.2986 54.6204C61.3231 54.6651 61.3719 54.6957 61.4452 54.7123C61.5206 54.7271 61.6075 54.7299 61.706 54.7207C61.8044 54.7116 61.8997 54.6924 61.9916 54.6633L62.1419 55.143C61.8237 55.2785 61.5038 55.3357 61.1822 55.3144C60.8607 55.2931 60.6479 55.2106 60.5439 55.0667C60.44 54.9208 60.3968 54.7163 60.4142 54.4532L60.5255 52.7694L60.2566 52.7516L60.2135 52.3818C60.2829 52.31 60.4194 52.2427 60.6232 52.1799C60.6957 51.8539 60.8243 51.6402 61.0092 51.5389Z" fill="white"/>
</g>
<g filter="url(#filter11_g_3_435)">
<path d="M126.852 55.4596C127.716 55.5167 128.124 55.895 128.078 56.5947C128.068 56.7467 128.019 56.905 127.932 57.0695C127.845 57.234 127.745 57.3742 127.631 57.49L126.694 58.4762C126.554 58.6157 126.389 58.7545 126.2 58.8927L126.098 58.9711L126.123 59.0374C126.31 59.0145 126.507 59.0099 126.714 59.0236L127.187 59.0549C127.229 58.8365 127.29 58.6683 127.37 58.5503L127.935 58.6229C128.015 58.7789 128.044 59.0235 128.022 59.3567C128.012 59.4971 127.989 59.6218 127.953 59.731L125.205 59.5492L125.111 58.7972L126.709 57.2792C127.008 56.9917 127.166 56.7096 127.184 56.4328C127.194 56.2867 127.166 56.1781 127.1 56.1072C127.053 56.0571 126.978 56.0218 126.875 56.0013C126.773 55.9808 126.664 55.9736 126.548 55.9797C126.432 55.9838 126.331 55.9996 126.245 56.0272C126.187 56.3228 126.127 56.5136 126.067 56.5996L125.536 56.5352C125.471 56.3997 125.444 56.1748 125.455 55.8604C125.457 55.8273 125.459 55.799 125.46 55.7756C125.464 55.7504 125.467 55.731 125.47 55.7175C125.846 55.5095 126.307 55.4235 126.852 55.4596ZM131.99 57.8194C131.963 58.2345 131.894 58.5803 131.784 58.8569C131.673 59.1334 131.53 59.3519 131.353 59.5125C131.178 59.6731 130.976 59.7841 130.749 59.8455C130.524 59.9069 130.282 59.929 130.023 59.9119C129.666 59.8883 129.367 59.7981 129.127 59.6413C128.889 59.4826 128.715 59.2431 128.605 58.9226C128.497 58.6023 128.46 58.1859 128.494 57.6733C128.541 56.9639 128.736 56.4473 129.078 56.1235C129.423 55.7979 129.871 55.6533 130.422 55.6898C130.987 55.7272 131.402 55.9131 131.665 56.2477C131.929 56.5803 132.037 57.1042 131.99 57.8194ZM131.089 57.8626C131.152 56.9057 130.896 56.4082 130.321 56.3702C130.052 56.3524 129.84 56.4421 129.684 56.6393C129.62 56.7211 129.566 56.834 129.521 56.9778C129.476 57.1197 129.442 57.278 129.419 57.4526C129.396 57.6273 129.385 57.8037 129.387 57.9819C129.389 58.1582 129.402 58.3226 129.428 58.475C129.455 58.6275 129.495 58.7525 129.55 58.85C129.686 59.0959 129.887 59.2276 130.152 59.2451C130.417 59.2627 130.631 59.1662 130.793 58.9558C130.956 58.7434 131.055 58.379 131.089 57.8626ZM133.95 55.929C134.814 55.9861 135.222 56.3645 135.176 57.0642C135.166 57.2162 135.117 57.3744 135.03 57.539C134.943 57.7035 134.842 57.8437 134.729 57.9595L133.792 58.9457C133.651 59.0851 133.487 59.224 133.297 59.3622L133.195 59.4406L133.22 59.5068C133.408 59.484 133.605 59.4794 133.811 59.4931L134.285 59.5244C134.327 59.306 134.388 59.1378 134.468 59.0198L135.033 59.0923C135.113 59.2483 135.141 59.493 135.119 59.8262C135.11 59.9665 135.087 60.0913 135.051 60.2004L132.303 60.0187L132.209 59.2667L133.806 57.7487C134.105 57.4612 134.264 57.179 134.282 56.9023C134.292 56.7561 134.264 56.6476 134.198 56.5767C134.15 56.5266 134.076 56.4913 133.973 56.4708C133.871 56.4503 133.762 56.4431 133.646 56.4491C133.53 56.4532 133.429 56.4691 133.343 56.4966C133.284 56.7922 133.225 56.9831 133.164 57.0691L132.634 57.0047C132.569 56.8692 132.542 56.6443 132.553 56.3299C132.555 56.2967 132.557 56.2685 132.558 56.2451C132.562 56.2199 132.565 56.2005 132.568 56.187C132.944 55.9789 133.405 55.8929 133.95 55.929ZM137.026 57.6739C137.418 57.6999 137.717 57.8253 137.923 58.0504C138.132 58.2736 138.222 58.5928 138.195 59.0079C138.162 59.499 137.993 59.8529 137.687 60.0695C137.383 60.2842 136.972 60.3745 136.454 60.3402C136.343 60.3329 136.222 60.3132 136.093 60.2811C135.966 60.2512 135.845 60.2148 135.731 60.172C135.618 60.1274 135.527 60.0812 135.458 60.0336L135.685 59.526C135.906 59.6287 136.148 59.6887 136.413 59.7063C136.676 59.7237 136.877 59.6831 137.014 59.5846C137.154 59.4861 137.232 59.3171 137.248 59.0774C137.269 58.7519 137.207 58.5335 137.062 58.4221C136.949 58.3304 136.808 58.279 136.641 58.2679C136.477 58.2571 136.257 58.2622 135.982 58.2831L135.771 57.8258L135.766 57.8254L135.879 56.1065L138.089 56.2527L138.044 56.9338L136.583 56.8372L136.527 57.6762C136.657 57.6613 136.824 57.6605 137.026 57.6739Z" fill="white"/>
</g>
<g filter="url(#filter12_g_3_435)">
<path d="M57.9978 90.0708C57.953 90.748 57.7035 91.3016 57.2493 91.7316C56.7952 92.1615 56.2411 92.4747 55.587 92.6713C56.0701 92.9136 56.3821 93.1912 56.5229 93.5039L57.474 95.6588C57.9415 95.8414 58.251 96.0454 58.4025 96.2707L58.1726 97.4152L55.644 97.248L54.1619 93.4652C54.0353 93.0849 53.8649 92.8877 53.6505 92.8735L52.6785 92.8092L52.5199 95.2063C53.2304 95.4148 53.6706 95.6396 53.8406 95.8809L53.605 97.1131L49.5635 96.8458L49.4995 95.5937C49.6423 95.4319 49.9286 95.2845 50.3582 95.1514L50.8107 88.3109C50.4062 88.1373 50.142 87.951 50.0182 87.752L50.2465 86.5192L54.0687 86.7721C54.9987 86.8434 55.7619 86.9942 56.3583 87.2245C56.9551 87.4499 57.39 87.7918 57.6631 88.2503C57.9365 88.7039 58.0481 89.3107 57.9978 90.0708ZM53.8513 88.3946L52.9743 88.3365L52.7863 91.1795L53.6341 91.2355C54.3162 91.2806 54.8296 91.2118 55.1745 91.0291C55.5242 90.8467 55.7166 90.49 55.7517 89.9589C55.7865 89.4327 55.6405 89.0512 55.3136 88.8142C54.9916 88.5776 54.5042 88.4377 53.8513 88.3946ZM59.4166 88.3736L59.6449 87.1409L63.1529 87.3729L63.2169 88.625C63.0435 88.8044 62.7596 88.9544 62.365 89.0751L61.9126 95.9156C62.2871 96.097 62.549 96.2807 62.6982 96.4667L62.4699 97.6995L58.9619 97.4674L58.8979 96.2154C59.0407 96.0536 59.327 95.9061 59.7566 95.773L60.2091 88.9325C59.8046 88.759 59.5405 88.5727 59.4166 88.3736ZM68.5155 89.3058C67.8383 89.261 67.2949 89.4868 66.8852 89.9833C66.4759 90.475 66.2287 91.3639 66.1436 92.6502C65.9806 95.1155 66.5787 96.3931 67.9381 96.483C68.4691 96.5181 68.9522 96.4645 69.3874 96.322L69.4991 94.6338C69.0465 94.4472 68.7445 94.2413 68.593 94.016L68.8248 92.8422L72.3255 93.0737L72.4006 94.2678C72.2584 94.4199 72.012 94.5578 71.6613 94.6814L71.4781 97.4512C70.9774 97.7704 70.4348 97.9841 69.8502 98.0922C69.2659 98.1955 68.545 98.2188 67.6875 98.162C66.26 98.0676 65.2392 97.5939 64.6252 96.741C64.0116 95.8832 63.7653 94.5383 63.8865 92.7064C64.0077 90.8745 64.4943 89.5463 65.3465 88.7218C66.2039 87.8928 67.322 87.5239 68.7008 87.6151C70.0845 87.7066 71.1914 88.0979 72.0217 88.789L71.9994 89.1252C71.992 89.2372 71.9635 89.409 71.9139 89.6407C71.8696 89.8677 71.8098 90.106 71.7345 90.3555C71.6596 90.6001 71.5725 90.8072 71.4732 90.9768L70.092 90.8854C69.9603 90.5831 69.8878 90.1624 69.8745 89.6232C69.4606 89.4441 69.0076 89.3383 68.5155 89.3058ZM79.2477 97.0622L79.4454 94.0732L76.1567 93.8556L75.959 96.8447C76.3336 97.0261 76.5955 97.2098 76.7447 97.3958L76.5163 98.6286L73.0084 98.3965L72.9444 97.1445C73.0872 96.9826 73.3734 96.8352 73.8031 96.7021L74.2555 89.8616C73.8511 89.688 73.5869 89.5017 73.4631 89.3027L73.6914 88.07L77.1994 88.302L77.2633 89.5541C77.09 89.7335 76.806 89.8835 76.4115 90.0042L76.2558 92.3575L79.5445 92.575L79.7002 90.2217C79.2957 90.0482 79.0316 89.8619 78.9077 89.6628L79.1434 88.4306L82.644 88.6621L82.7153 89.9147C82.542 90.0941 82.2556 90.2439 81.8561 90.3643L81.4037 97.2048C81.7831 97.3865 82.0474 97.5704 82.1966 97.7564L81.961 98.9887L78.4603 98.7571L78.389 97.5046C78.5319 97.3428 78.8181 97.1953 79.2477 97.0622ZM84.1819 91.0467L83.2468 90.8674L83.3885 88.7261L91.771 89.2805L91.6294 91.4218L90.6789 91.4764C90.5535 91.3751 90.4431 91.1574 90.3478 90.8232L88.5499 90.7043L88.0907 97.6472C88.4702 97.8288 88.7345 98.0127 88.8837 98.1987L88.648 99.431L85.1474 99.1994L85.0761 97.9469C85.2189 97.7851 85.5051 97.6376 85.9348 97.5046L86.394 90.5617L84.5962 90.4428C84.4576 90.7615 84.3195 90.9628 84.1819 91.0467ZM96.1346 98.1058L99.5747 89.7086L101.628 89.8444L104.039 98.6727C104.448 98.8514 104.729 99.0462 104.881 99.2569L104.653 100.49L101.152 100.258L101.081 99.0055C101.213 98.8577 101.464 98.725 101.834 98.6076L101.508 97.3235L98.5189 97.1258L98.0592 98.3065C98.4006 98.471 98.6503 98.6539 98.8083 98.8552L98.5726 100.087L95.1597 99.8617L95.0957 98.6096C95.296 98.3929 95.6423 98.2249 96.1346 98.1058ZM100.457 92.1232L100.46 91.8664L100.248 91.8524C100.208 92.4565 100.037 93.1572 99.7343 93.9544L99.0269 95.7721L101.168 95.9137L100.719 94.0489C100.536 93.3322 100.449 92.6903 100.457 92.1232ZM110.892 95.2797L109.26 100.868L106.95 100.715L105.133 91.9039C104.728 91.7304 104.464 91.5441 104.34 91.345L104.569 90.1123L108.033 90.3414L108.097 91.5935C107.908 91.7865 107.627 91.9319 107.253 92.0295L108.028 96.5216C108.147 97.1656 108.229 97.8072 108.275 98.4464L108.287 98.7041L108.499 98.7181C108.548 98.1243 108.69 97.4217 108.925 96.6103L110.672 90.6187L112.959 90.77L113.911 96.9107C114.014 97.6418 114.082 98.2824 114.114 98.8326L114.125 99.1049L114.337 99.119C114.403 98.5018 114.569 97.7959 114.837 97.0013L116.304 92.6942C115.89 92.5103 115.615 92.3061 115.478 92.0817L115.707 90.849L119.017 91.068L119.081 92.32C118.881 92.5417 118.534 92.7145 118.041 92.8385L114.96 101.245L112.607 101.089L111.775 95.3528C111.73 95.0072 111.691 94.6694 111.659 94.3395C111.627 94.0046 111.605 93.6728 111.592 93.3441L111.576 93.0421L111.371 93.0286C111.286 93.7178 111.127 94.4682 110.892 95.2797ZM118.469 99.5831L121.909 91.1858L123.962 91.3217L126.373 100.15C126.782 100.329 127.063 100.523 127.215 100.734L126.987 101.967L123.486 101.735L123.415 100.483C123.547 100.335 123.798 100.202 124.168 100.085L123.842 98.8007L120.853 98.603L120.393 99.7837C120.735 99.9482 120.984 100.131 121.142 100.332L120.907 101.565L117.494 101.339L117.43 100.087C117.63 99.8701 117.976 99.7022 118.469 99.5831ZM122.791 93.6004L122.794 93.3437L122.582 93.3296C122.542 93.9338 122.371 94.6345 122.068 95.4317L121.361 97.2493L123.502 97.391L123.053 95.5262C122.87 94.8094 122.783 94.1675 122.791 93.6004ZM132.426 101.079L132.198 102.312L128.697 102.08L128.626 100.827C128.769 100.666 129.055 100.518 129.485 100.385L129.598 98.6677L127.493 93.4343C127.031 93.2422 126.724 93.036 126.572 92.8155L126.781 91.6549L126.782 91.6403L126.8 91.5828L130.308 91.8148L130.372 93.0669C130.239 93.2342 130 93.3677 129.656 93.4672L130.091 94.6558C130.334 95.3423 130.54 96.0116 130.707 96.6637L130.79 96.9701L131.016 96.9851C131.147 96.6316 131.293 96.2719 131.454 95.9057C131.616 95.5347 131.795 95.16 131.991 94.7815L132.539 93.7167C132.154 93.5395 131.897 93.3537 131.768 93.1592L131.997 91.9265L135.41 92.1522L135.481 93.4048C135.271 93.616 134.927 93.7841 134.449 93.9091L131.754 98.8103L131.641 100.528C132.025 100.71 132.287 100.893 132.426 101.079ZM43.9923 114.957C43.8847 116.582 43.286 117.911 42.196 118.943C41.106 119.975 39.7761 120.727 38.2064 121.198C39.3659 121.78 40.1145 122.446 40.4525 123.196L42.7352 128.368C43.8572 128.806 44.6 129.296 44.9635 129.837L44.4119 132.584L38.3431 132.182L34.7861 123.104C34.4824 122.191 34.0733 121.718 33.5588 121.684L31.226 121.529L30.8454 127.282C32.5505 127.783 33.607 128.322 34.015 128.901L33.4495 131.859L23.75 131.217L23.5964 128.212C23.9392 127.824 24.6261 127.47 25.6573 127.15L26.7432 110.733C25.7725 110.317 25.1385 109.87 24.8412 109.392L25.3893 106.433L34.5626 107.04C36.7944 107.211 38.6261 107.573 40.0576 108.126C41.4898 108.667 42.5337 109.488 43.189 110.588C43.8452 111.677 44.1129 113.133 43.9923 114.957ZM34.0408 110.934L31.936 110.795L31.4847 117.618L33.5193 117.752C35.1564 117.861 36.3887 117.696 37.2163 117.257C38.0556 116.819 38.5174 115.963 38.6017 114.689C38.6853 113.426 38.3348 112.51 37.5503 111.941C36.7775 111.373 35.6076 111.038 34.0408 110.934ZM60.7555 127.059L63.3995 127.568L62.9865 133.812L46.3062 132.709L46.1526 129.704C46.4954 129.316 47.1823 128.962 48.2135 128.642L49.2994 112.225C48.3286 111.809 47.6947 111.362 47.3974 110.884L47.9454 107.925L64.3276 109.009L63.9146 115.253L61.244 115.411C60.7145 114.895 60.3289 113.976 60.0874 112.657L54.4922 112.287L54.0838 118.461L59.0651 118.79C59.4038 118.108 59.7353 117.625 60.0594 117.341L62.3046 117.754L61.8823 124.138L59.6 124.287C59.3239 124.022 59.059 123.499 58.8052 122.719L53.8239 122.39L53.3703 129.248L59.2461 129.636C59.6454 128.394 60.1485 127.535 60.7555 127.059ZM74.66 125.917L73.0463 125.81L72.7656 130.055C74.4706 130.555 75.5272 131.095 75.9352 131.674L75.3696 134.631L65.6701 133.99L65.5165 130.985C65.8593 130.596 66.5463 130.243 67.5774 129.923L68.6633 113.506C67.6926 113.089 67.0586 112.642 66.7614 112.165L67.3094 109.206L76.8335 109.836C79.0536 110.006 80.8775 110.397 82.3052 111.008C83.7452 111.609 84.7895 112.511 85.4379 113.717C86.0863 114.923 86.3448 116.519 86.2133 118.507C85.8544 123.933 82.0033 126.403 74.66 125.917ZM75.996 113.709L73.8561 113.568L73.305 121.899L75.708 122.058C77.3333 122.165 78.5649 121.924 79.4025 121.333C80.2527 120.732 80.7303 119.636 80.8355 118.046C80.9415 116.444 80.5734 115.351 79.7312 114.767C78.9015 114.171 77.6564 113.819 75.996 113.709ZM86.6548 131.009L94.9111 110.856L99.8398 111.182L105.626 132.369C106.608 132.798 107.281 133.266 107.647 133.772L107.099 136.73L98.6975 136.174L98.5264 133.168C98.8435 132.813 99.4459 132.495 100.334 132.213L99.5509 129.131L92.3772 128.657L91.2737 131.491C92.0932 131.885 92.6924 132.324 93.0715 132.807L92.506 135.765L84.3149 135.223L84.1613 132.218C84.642 131.698 85.4732 131.295 86.6548 131.009ZM97.0293 116.651L97.0349 116.034L96.5262 116.001C96.4303 117.451 96.0196 119.132 95.2941 121.046L93.5962 125.408L98.7354 125.748L97.6573 121.272C97.2191 119.552 97.0098 118.012 97.0293 116.651ZM109.909 115.019L110.457 112.06L118.876 112.617L119.03 115.622C118.614 116.052 117.932 116.412 116.985 116.702L115.9 133.119C116.799 133.555 117.427 133.996 117.785 134.442L117.237 137.401L108.818 136.844L108.664 133.839C109.007 133.45 109.694 133.097 110.725 132.777L111.811 116.36C110.84 115.943 110.207 115.496 109.909 115.019ZM140.496 121.34C140.389 122.966 139.79 124.294 138.7 125.326C137.61 126.358 136.28 127.11 134.71 127.581C135.87 128.163 136.619 128.829 136.956 129.58L139.239 134.751C140.361 135.19 141.104 135.679 141.467 136.22L140.916 138.967L134.847 138.565L131.29 129.487C130.986 128.574 130.577 128.101 130.063 128.067L127.73 127.912L127.349 133.665C129.054 134.166 130.111 134.705 130.519 135.284L129.953 138.242L120.254 137.6L120.1 134.595C120.443 134.207 121.13 133.853 122.161 133.534L123.247 117.116C122.276 116.7 121.642 116.253 121.345 115.775L121.893 112.816L131.067 113.423C133.298 113.594 135.13 113.956 136.562 114.509C137.994 115.05 139.038 115.871 139.693 116.971C140.349 118.06 140.617 119.516 140.496 121.34ZM130.545 117.317L128.44 117.178L127.989 124.001L130.023 124.136C131.66 124.244 132.893 124.079 133.72 123.64C134.56 123.202 135.021 122.346 135.106 121.072C135.189 119.809 134.839 118.893 134.054 118.324C133.281 117.757 132.112 117.421 130.545 117.317ZM154.872 118.926C154.068 118.662 153.227 118.5 152.35 118.442C151.461 118.384 150.734 118.553 150.167 118.95C149.588 119.358 149.272 119.965 149.219 120.772C149.165 121.579 149.328 122.224 149.707 122.707C150.087 123.178 150.862 123.623 152.033 124.041L155.181 125.183C156.867 125.799 158.182 126.679 159.129 127.822C160.076 128.954 160.481 130.548 160.345 132.606C160.237 134.232 159.741 135.608 158.856 136.736C157.971 137.863 156.812 138.703 155.378 139.254C153.956 139.794 152.374 140.007 150.632 139.891C149.194 139.796 147.726 139.517 146.23 139.054C144.735 138.579 143.506 137.975 142.545 137.242L142.601 136.401C142.618 136.132 142.681 135.725 142.787 135.18C142.905 134.636 143.054 134.07 143.234 133.483C143.426 132.885 143.636 132.382 143.862 131.974L147.283 132.2C147.618 132.986 147.78 133.995 147.769 135.227C148.552 135.643 149.517 135.889 150.663 135.965C151.773 136.038 152.703 135.836 153.451 135.357C154.211 134.878 154.623 134.148 154.688 133.166C154.719 132.698 154.709 132.316 154.658 132.019C154.608 131.71 154.407 131.374 154.056 131.01C153.704 130.646 153.19 130.33 152.515 130.063L148.885 128.748C145.19 127.435 143.466 124.913 143.713 121.183C143.809 119.733 144.249 118.494 145.033 117.465C145.829 116.437 146.89 115.668 148.216 115.156C149.542 114.645 151.058 114.446 152.765 114.559C155.326 114.728 157.784 115.472 160.14 116.791L160.086 117.615C160.068 117.884 159.999 118.296 159.88 118.852C159.774 119.397 159.625 119.963 159.433 120.549C159.254 121.136 159.045 121.633 158.806 122.04L155.404 121.815C155.033 121.204 154.856 120.241 154.872 118.926Z" fill="white"/>
</g>
<defs>
<filter id="filter0_g_3_435" x="68.7469" y="42.0891" width="8.07159" height="8.95103" filterUnits="userSpaceOnUse" color-interpolation-filters="sRGB">
<feFlood flood-opacity="0" result="BackgroundImageFix"/>
<feBlend mode="normal" in="SourceGraphic" in2="BackgroundImageFix" result="shape"/>
<feTurbulence type="fractalNoise" baseFrequency="2 2" numOctaves="3" seed="339" />
<feDisplacementMap in="shape" scale="0.40000000596046448" xChannelSelector="R" yChannelSelector="G" result="displacedImage" width="100%" height="100%" />
<feMerge result="effect1_texture_3_435">
<feMergeNode in="displacedImage"/>
</feMerge>
</filter>
<filter id="filter1_g_3_435" x="72.8839" y="29.9372" width="23.7176" height="17.9386" filterUnits="userSpaceOnUse" color-interpolation-filters="sRGB">
<feFlood flood-opacity="0" result="BackgroundImageFix"/>
<feBlend mode="normal" in="SourceGraphic" in2="BackgroundImageFix" result="shape"/>
<feTurbulence type="fractalNoise" baseFrequency="2 2" numOctaves="3" seed="339" />
<feDisplacementMap in="shape" scale="0.40000000596046448" xChannelSelector="R" yChannelSelector="G" result="displacedImage" width="100%" height="100%" />
<feMerge result="effect1_texture_3_435">
<feMergeNode in="displacedImage"/>
</feMerge>
</filter>
<filter id="filter2_g_3_435" x="84.0626" y="44.2438" width="30.4759" height="35.0006" filterUnits="userSpaceOnUse" color-interpolation-filters="sRGB">
<feFlood flood-opacity="0" result="BackgroundImageFix"/>
<feBlend mode="normal" in="SourceGraphic" in2="BackgroundImageFix" result="shape"/>
<feTurbulence type="fractalNoise" baseFrequency="2 2" numOctaves="3" seed="339" />
<feDisplacementMap in="shape" scale="0.40000000596046448" xChannelSelector="R" yChannelSelector="G" result="displacedImage" width="100%" height="100%" />
<feMerge result="effect1_texture_3_435">
<feMergeNode in="displacedImage"/>
</feMerge>
</filter>
<filter id="filter3_g_3_435" x="86.8518" y="46.9647" width="22.9923" height="27.7361" filterUnits="userSpaceOnUse" color-interpolation-filters="sRGB">
<feFlood flood-opacity="0" result="BackgroundImageFix"/>
<feBlend mode="normal" in="SourceGraphic" in2="BackgroundImageFix" result="shape"/>
<feTurbulence type="fractalNoise" baseFrequency="2.6315789222717285 2.6315789222717285" numOctaves="3" seed="1593" />
<feDisplacementMap in="shape" scale="0.2199999988079071" xChannelSelector="R" yChannelSelector="G" result="displacedImage" width="100%" height="100%" />
<feMerge result="effect1_texture_3_435">
<feMergeNode in="displacedImage"/>
</feMerge>
</filter>
<filter id="filter4_g_3_435" x="82.2837" y="41.3012" width="28.3086" height="27.8807" filterUnits="userSpaceOnUse" color-interpolation-filters="sRGB">
<feFlood flood-opacity="0" result="BackgroundImageFix"/>
<feBlend mode="normal" in="SourceGraphic" in2="BackgroundImageFix" result="shape"/>
<feTurbulence type="fractalNoise" baseFrequency="1 1" numOctaves="3" seed="3145" />
<feDisplacementMap in="shape" scale="0.40000000596046448" xChannelSelector="R" yChannelSelector="G" result="displacedImage" width="100%" height="100%" />
<feMerge result="effect1_texture_3_435">
<feMergeNode in="displacedImage"/>
</feMerge>
</filter>
<filter id="filter5_g_3_435" x="102.241" y="31.1953" width="18.8691" height="18.6944" filterUnits="userSpaceOnUse" color-interpolation-filters="sRGB">
<feFlood flood-opacity="0" result="BackgroundImageFix"/>
<feBlend mode="normal" in="SourceGraphic" in2="BackgroundImageFix" result="shape"/>
<feTurbulence type="fractalNoise" baseFrequency="1 1" numOctaves="3" seed="3145" />
<feDisplacementMap in="shape" scale="0.40000000596046448" xChannelSelector="R" yChannelSelector="G" result="displacedImage" width="100%" height="100%" />
<feMerge result="effect1_texture_3_435">
<feMergeNode in="displacedImage"/>
</feMerge>
</filter>
<filter id="filter6_g_3_435" x="72.7438" y="60.2194" width="19.1311" height="18.276" filterUnits="userSpaceOnUse" color-interpolation-filters="sRGB">
<feFlood flood-opacity="0" result="BackgroundImageFix"/>
<feBlend mode="normal" in="SourceGraphic" in2="BackgroundImageFix" result="shape"/>
<feTurbulence type="fractalNoise" baseFrequency="2 2" numOctaves="3" seed="339" />
<feDisplacementMap in="shape" scale="0.40000000596046448" xChannelSelector="R" yChannelSelector="G" result="displacedImage" width="100%" height="100%" />
<feMerge result="effect1_texture_3_435">
<feMergeNode in="displacedImage"/>
</feMerge>
</filter>
<filter id="filter7_g_3_435" x="89.5371" y="47.2699" width="15.1937" height="14.8062" filterUnits="userSpaceOnUse" color-interpolation-filters="sRGB">
<feFlood flood-opacity="0" result="BackgroundImageFix"/>
<feBlend mode="normal" in="SourceGraphic" in2="BackgroundImageFix" result="shape"/>
<feTurbulence type="fractalNoise" baseFrequency="2.6315789222717285 2.6315789222717285" numOctaves="3" seed="1593" />
<feDisplacementMap in="shape" scale="0.2199999988079071" xChannelSelector="R" yChannelSelector="G" result="displacedImage" width="100%" height="100%" />
<feMerge result="effect1_texture_3_435">
<feMergeNode in="displacedImage"/>
</feMerge>
</filter>
<filter id="filter8_g_3_435" x="30.3961" y="14.0967" width="127.118" height="127.118" filterUnits="userSpaceOnUse" color-interpolation-filters="sRGB">
<feFlood flood-opacity="0" result="BackgroundImageFix"/>
<feBlend mode="normal" in="SourceGraphic" in2="BackgroundImageFix" result="shape"/>
<feTurbulence type="fractalNoise" baseFrequency="3.3333332538604736 3.3333332538604736" numOctaves="3" seed="1935" />
<feDisplacementMap in="shape" scale="0.60000002384185791" xChannelSelector="R" yChannelSelector="G" result="displacedImage" width="100%" height="100%" />
<feMerge result="effect1_texture_3_435">
<feMergeNode in="displacedImage"/>
</feMerge>
</filter>
<filter id="filter9_g_3_435" x="21.7305" y="5.43096" width="144.449" height="144.449" filterUnits="userSpaceOnUse" color-interpolation-filters="sRGB">
<feFlood flood-opacity="0" result="BackgroundImageFix"/>
<feBlend mode="normal" in="SourceGraphic" in2="BackgroundImageFix" result="shape"/>
<feTurbulence type="fractalNoise" baseFrequency="3.3333332538604736 3.3333332538604736" numOctaves="3" seed="1935" />
<feDisplacementMap in="shape" scale="0.60000002384185791" xChannelSelector="R" yChannelSelector="G" result="displacedImage" width="100%" height="100%" />
<feMerge result="effect1_texture_3_435">
<feMergeNode in="displacedImage"/>
</feMerge>
</filter>
<filter id="filter10_g_3_435" x="54.1125" y="50.6229" width="8.38715" height="4.90654" filterUnits="userSpaceOnUse" color-interpolation-filters="sRGB">
<feFlood flood-opacity="0" result="BackgroundImageFix"/>
<feBlend mode="normal" in="SourceGraphic" in2="BackgroundImageFix" result="shape"/>
<feTurbulence type="fractalNoise" baseFrequency="2 2" numOctaves="3" seed="1963" />
<feDisplacementMap in="shape" scale="0.20000000298023224" xChannelSelector="R" yChannelSelector="G" result="displacedImage" width="100%" height="100%" />
<feMerge result="effect1_texture_3_435">
<feMergeNode in="displacedImage"/>
</feMerge>
</filter>
<filter id="filter11_g_3_435" x="124.959" y="55.2535" width="13.5208" height="5.29546" filterUnits="userSpaceOnUse" color-interpolation-filters="sRGB">
<feFlood flood-opacity="0" result="BackgroundImageFix"/>
<feBlend mode="normal" in="SourceGraphic" in2="BackgroundImageFix" result="shape"/>
<feTurbulence type="fractalNoise" baseFrequency="2 2" numOctaves="3" seed="1963" />
<feDisplacementMap in="shape" scale="0.20000000298023224" xChannelSelector="R" yChannelSelector="G" result="displacedImage" width="100%" height="100%" />
<feMerge result="effect1_texture_3_435">
<feMergeNode in="displacedImage"/>
</feMerge>
</filter>
<filter id="filter12_g_3_435" x="23.2606" y="84.7015" width="139.768" height="55.9177" filterUnits="userSpaceOnUse" color-interpolation-filters="sRGB">
<feFlood flood-opacity="0" result="BackgroundImageFix"/>
<feBlend mode="normal" in="SourceGraphic" in2="BackgroundImageFix" result="shape"/>
<feTurbulence type="fractalNoise" baseFrequency="2 2" numOctaves="3" seed="8673" />
<feDisplacementMap in="shape" scale="0.23999999463558197" xChannelSelector="R" yChannelSelector="G" result="displacedImage" width="100%" height="100%" />
<feMerge result="effect1_texture_3_435">
<feMergeNode in="displacedImage"/>
</feMerge>
</filter>
</defs>
</svg>
